<svg xmlns="http://www.w3.org/2000/svg" viewBox="0 0 100.56 99.02"><defs><style>.cls-1{fill:#c4c3d5;}.cls-2{fill:#010101;}.cls-3{fill:#c4c4d7;}.cls-4{fill:#fff;}.cls-5{fill:#465d80;opacity:0.3;}.cls-6{fill:#f7c0cb;}.cls-7{fill:#f196bf;}.cls-8{fill:#e972a2;}.cls-9{fill:#fad9e9;}.cls-10{fill:#23a038;}.cls-11{fill:#1d7833;opacity:0.9;}.cls-12{fill:#ffdc68;}.cls-13{fill:#eea723;}.cls-14{fill:#1d435d;}.cls-15{fill:#eb585b;}</style></defs><g id="Слой_2" data-name="Слой 2"><g id="Слой_1-2" data-name="Слой 1"><path class="cls-1" d="M74.65,98.65H28.36c0-1-.06-2-.07-3,0-.25,0-.5,0-.75,0-5.9.3-11.34.68-15.57s.79-7.2.94-8.29c0-.11,0-.2,0-.27.22-1.67,41-.5,41.85-.28.32.09.59.69.79,1.4a19.91,19.91,0,0,1,.52,2.64A13.76,13.76,0,0,1,74,77.75C75.22,84.07,74.83,94.88,74.65,98.65Z"/><path class="cls-2" d="M28.38,99a.32.32,0,0,1-.31-.29L28,95.75c0-.25,0-.51,0-.76a151.47,151.47,0,0,1,.69-15.63h0c.46-4.71,1-7.63,1-7.66a.31.31,0,1,1,.6.11s-.52,2.92-1,7.61h0A150.63,150.63,0,0,0,28.57,95c0,.25,0,.5,0,.75l.1,2.9a.29.29,0,0,1-.29.31Z"/><path class="cls-2" d="M74.59,99h0a.3.3,0,0,1-.29-.32c.24-3.72.65-13.19-.56-20.83h0a30,30,0,0,0-1.42-5.75v0a.3.3,0,1,1,.57-.2h0a29.57,29.57,0,0,1,1.45,5.87h0c1.21,7.7.79,17.22.56,21A.3.3,0,0,1,74.59,99Z"/><path class="cls-3" d="M31.32,71.15a43,43,0,0,1-6-1.81A46.21,46.21,0,0,1,5.2,53.83,46.77,46.77,0,0,1,.55,46.16a5.07,5.07,0,0,0,1.13.21,4.87,4.87,0,0,0,1.52-.11,12.21,12.21,0,0,1-2-2.39A12.57,12.57,0,0,1,.29,42c.57,0,1.17.06,1.78.12s1.44.15,2.1.25a10.17,10.17,0,0,1-1.31-1.27,11,11,0,0,1-1-1.39A101.54,101.54,0,0,0,10,27.83h0A101.73,101.73,0,0,0,17.43,13.2s3.66-8.31,6-11.39A5.59,5.59,0,0,1,24.71.67a2.56,2.56,0,0,1,.9-.41,2.61,2.61,0,0,1,1.61.26A4,4,0,0,1,28.7,1.77a8.22,8.22,0,0,1,1.1,1.62A66,66,0,0,1,34,13.14c0,.11.07.22.07.22.54,1.64.95,3,1.22,4a26.24,26.24,0,0,0,6.59-2.56A19.41,19.41,0,0,0,50,7.27,17,17,0,0,0,51,5a9,9,0,0,1,1,3.23,9.22,9.22,0,0,1-1.28,5.57,16.73,16.73,0,0,0,4.61-2.32,16.79,16.79,0,0,0,3.24-3.08,8.7,8.7,0,0,1,0,2.6,8.91,8.91,0,0,1-.88,2.72,9.73,9.73,0,0,0,3.6-1.59,9.45,9.45,0,0,0,1.87-1.72,4.51,4.51,0,0,1,.11,2.11,4.78,4.78,0,0,1-1.37,2.58l1.36.39c.75.24,1.45.51,2.09.77,1.13-2.42,2-4.41,2.54-5.75a46.53,46.53,0,0,1,4.38-8A3.77,3.77,0,0,1,74.34,1,2.64,2.64,0,0,1,75.13.9c1.67.11,2.7,2.25,2.79,2.46.8,1.45,2,3.72,3.4,6.53.25.5.9,2,2.09,4.61h0c1.23,2.73,2.27,4.93,2.72,5.88,0,0,.12.24.22.46,1.35,2.81,4.66,8.33,7.11,12.34l5.08,6.35a9.64,9.64,0,0,1-.63,1.39,9.75,9.75,0,0,1-1.25,1.81l3.6-.66-2.83,4.69,2.55-.44A43.84,43.84,0,0,1,97,52a46.69,46.69,0,0,1-18,16.18L70,71.62a112,112,0,0,1-21,1.43A111.25,111.25,0,0,1,31.32,71.15Z"/><path class="cls-4" d="M94.33,55.6c-1.56.94-10,8.27-24.78,1.77A31.37,31.37,0,0,1,56,45.59a4.18,4.18,0,0,0-1.61-1.79,3.7,3.7,0,0,0-1-.42,20.67,20.67,0,0,0-3.61-.29,21.09,21.09,0,0,0-3.6.35,3.4,3.4,0,0,0-.85.43,4,4,0,0,0-1.47,2A29.15,29.15,0,0,1,32,56.1c-12,5.51-23.61.33-25.45-.53A46.13,46.13,0,0,0,21.05,67.45a45.66,45.66,0,0,0,10.28,3.82,94.78,94.78,0,0,0,18,2.26,95.4,95.4,0,0,0,20.78-1.7A47,47,0,0,0,94.33,55.6Z"/><path class="cls-5" d="M88.64,61.7a97.41,97.41,0,0,1-30.43,6.13c-10.54.38-23.76.87-36.47-7.18a47.56,47.56,0,0,1-12-10.95L12,49.58,8.56,45.89l2.87-.34L8.85,42q.35-2.35.6-4.89c.32-3.27.45-6.37.45-9.24A69.68,69.68,0,0,1,6.13,34a67.13,67.13,0,0,1-4.31,5.66A12.07,12.07,0,0,0,2.9,41.16a10.68,10.68,0,0,0,1.28,1.26L.25,42a15.31,15.31,0,0,0,2.9,4.22A2.69,2.69,0,0,1,2,46.58,2.72,2.72,0,0,1,.6,46.27c.55,1.17,1.19,2.42,1.94,3.7a42.91,42.91,0,0,0,4,5.6A63.92,63.92,0,0,0,21,67.46c8.86,5,27,8.35,49.09,4.38a49.23,49.23,0,0,0,14-6.59A47.31,47.31,0,0,0,88.64,61.7Z"/><path class="cls-6" d="M78.51,4.17a11.11,11.11,0,0,0-1.5-2,3.11,3.11,0,0,0-1.07-.84,3,3,0,0,0-1.38-.2c-.46,0-1.32.28-2.64,1.93a14.32,14.32,0,0,0-1.78,3c-1.46,3.13-1.81,3.66-2.3,4.67-.3.62-.52,1.13-.73,1.62-.7,1.67-1.39,3.43-1.73,4.3l22.7,8c-.5-.92-1.26-2.38-2.14-4.21-1.85-3.87-2.48-5.86-4-9.33C81.18,9.39,80.07,7,78.51,4.17Z"/><path class="cls-4" d="M75.21,1.08A5.18,5.18,0,0,0,74.06,2.2a6,6,0,0,0-.37.55c-2.57,4.42-4.43,11.81-4.43,11.81-.19.74-.45,1.82-.74,3.14L65.2,16.59c.3-.62.83-1.73,1.47-3.13,1.32-2.87,2.1-4.76,3.51-7.39,1.29-2.39.49-.54,2-3.1a3.6,3.6,0,0,1,1.61-1.69A2.82,2.82,0,0,1,75.21,1.08Z"/><path class="cls-6" d="M22.14,4.16a7.66,7.66,0,0,1,2.2-3A3.1,3.1,0,0,1,25.93.31c1.8-.23,3.23,2.18,3.31,2.3.44.83.87,1.67,1.29,2.54A79.34,79.34,0,0,1,35.3,17.43L11.79,24.84c.53-.93,1.36-2.41,2.3-4.27,2-3.93,2.7-6,4.39-9.48C19.26,9.45,20.46,7,22.14,4.16Z"/><path class="cls-4" d="M25.61.41A6.71,6.71,0,0,1,27,1.57a6,6,0,0,1,1.07,1.69c.9,2.6,1.77,5.46,2.52,8.58.55,2.3,1,4.5,1.32,6.57l3.39-1c-.81-2.33-1.75-5-2.82-8L29.77,3.46a4.36,4.36,0,0,0-1.61-2.22A4.52,4.52,0,0,0,25.61.41Z"/><path class="cls-2" d="M73.28,71.12a.3.3,0,0,1-.28-.19.31.31,0,0,1,.17-.4A53.48,53.48,0,0,0,92,58.05a43.91,43.91,0,0,0,7.49-11.18,9.7,9.7,0,0,1-1,.2c-.35,0-.7.07-1,.08a.32.32,0,0,1-.28-.17.3.3,0,0,1,0-.33,18.8,18.8,0,0,0,1.4-1.95,19.49,19.49,0,0,0,1.18-2.15l-1.14.23-1.83.41a.31.31,0,0,1-.3-.5,9.15,9.15,0,0,0,1.19-1.75,9.27,9.27,0,0,0,.52-1.26c-.66-.77-1.32-1.57-2-2.36-1-1.27-2-2.57-3-3.88a.3.3,0,0,1,.07-.42.3.3,0,0,1,.42.06c1,1.3,2,2.6,3,3.86.67.83,1.36,1.66,2.06,2.48a.29.29,0,0,1,.06.28,9.51,9.51,0,0,1-.62,1.52,8.92,8.92,0,0,1-.73,1.18l1-.21,1.73-.35a.31.31,0,0,1,.3.11.33.33,0,0,1,0,.32A22,22,0,0,1,99.07,45c-.32.51-.66,1-1,1.48l.31,0a9.71,9.71,0,0,0,1.58-.35.3.3,0,0,1,.32.08.31.31,0,0,1,0,.33,44.53,44.53,0,0,1-7.86,11.95h0a54.21,54.21,0,0,1-19,12.62Z"/><path class="cls-2" d="M31.33,71.55h-.07a44.07,44.07,0,0,1-6-1.83A46.27,46.27,0,0,1,5,54.09,47.94,47.94,0,0,1,.29,46.38.32.32,0,0,1,.34,46,.3.3,0,0,1,.66,46a4.74,4.74,0,0,0,1.06.21,4.81,4.81,0,0,0,.85,0,11.88,11.88,0,0,1-1.57-2,12.19,12.19,0,0,1-1-1.9.31.31,0,0,1,0-.29.32.32,0,0,1,.26-.13c.6,0,1.2.07,1.79.12L3.24,42c-.21-.2-.41-.42-.6-.64a9.93,9.93,0,0,1-1-1.43.32.32,0,0,1,0-.35A102,102,0,0,0,9.7,27.77h0a100.3,100.3,0,0,0,7.46-14.59c.15-.35,3.7-8.39,6.05-11.45A5.66,5.66,0,0,1,24.56.49a3,3,0,0,1,1-.44,2.87,2.87,0,0,1,1.79.27,4.4,4.4,0,0,1,1.59,1.34,9.43,9.43,0,0,1,1.15,1.67,67.29,67.29,0,0,1,4.23,9.8l.08.22c.4,1.23.78,2.47,1.13,3.71a26.35,26.35,0,0,0,6.23-2.46,19.07,19.07,0,0,0,8-7.39,17.26,17.26,0,0,0,1-2.19.3.3,0,0,1,.26-.2.3.3,0,0,1,.29.17,9.18,9.18,0,0,1,1,3.34,9.53,9.53,0,0,1-.94,5.05,16.6,16.6,0,0,0,3.78-2,16.29,16.29,0,0,0,3.19-3,.3.3,0,0,1,.31-.1.31.31,0,0,1,.23.25,9.32,9.32,0,0,1,0,2.69,9,9,0,0,1-.64,2.22A9.46,9.46,0,0,0,61.09,12a9.55,9.55,0,0,0,1.81-1.67.31.31,0,0,1,.53.11,5,5,0,0,1,.12,2.25,5.19,5.19,0,0,1-1.11,2.37l.88.26c.62.2,1.24.42,1.85.67.85-1.83,1.66-3.67,2.42-5.48a47.17,47.17,0,0,1,4.4-8A4.15,4.15,0,0,1,74.29.77a3.05,3.05,0,0,1,.87-.09C77,.8,78.07,3,78.21,3.3c1.17,2.14,2.31,4.34,3.4,6.54l.76,1.66c.33.74.77,1.72,1.33,2.95h0c.65,1.44,1.68,3.69,2.89,6.23l.05.11c1.63,3.42,6.2,10.85,7.1,12.3a.32.32,0,0,1-.1.42.3.3,0,0,1-.42-.1c-.9-1.46-5.48-8.91-7.13-12.36l0-.11c-1.21-2.54-2.24-4.79-2.9-6.23h0l-1.34-3c-.37-.83-.62-1.37-.75-1.64C80,7.91,78.83,5.72,77.67,3.59v0c-.1-.22-1.06-2.19-2.54-2.28a2.47,2.47,0,0,0-.69.07,3.52,3.52,0,0,0-1.94,1.48,46.18,46.18,0,0,0-4.34,7.92c-.8,1.9-1.65,3.84-2.55,5.76a.31.31,0,0,1-.4.15c-.67-.28-1.37-.54-2.06-.76-.45-.14-.9-.27-1.35-.38a.31.31,0,0,1-.21-.22.3.3,0,0,1,.08-.3A4.56,4.56,0,0,0,63,12.59a4.69,4.69,0,0,0,0-1.4,10.66,10.66,0,0,1-1.53,1.32,10.16,10.16,0,0,1-3.71,1.64.31.31,0,0,1-.34-.44,8.73,8.73,0,0,0,.86-2.63,8.42,8.42,0,0,0,.08-1.81,16.5,16.5,0,0,1-2.83,2.58,17.11,17.11,0,0,1-4.69,2.37.3.3,0,0,1-.35-.45,9,9,0,0,0,1.23-5.38,8.31,8.31,0,0,0-.64-2.49,15.68,15.68,0,0,1-.77,1.6,19.49,19.49,0,0,1-8.22,7.63,26.55,26.55,0,0,1-6.67,2.59A.3.3,0,0,1,35,17.5c-.37-1.31-.78-2.65-1.21-4l-.07-.21a66.62,66.62,0,0,0-4.2-9.72,9,9,0,0,0-1.07-1.56A3.82,3.82,0,0,0,27.11.88,2.29,2.29,0,0,0,25.68.65a2.24,2.24,0,0,0-.8.36,5.52,5.52,0,0,0-1.19,1.08c-2.3,3-5.94,11.23-6,11.32a102.41,102.41,0,0,1-7.49,14.66h0a103,103,0,0,1-8,11.76A9.85,9.85,0,0,0,3.1,41a11.34,11.34,0,0,0,1.27,1.23.29.29,0,0,1,.09.36.3.3,0,0,1-.32.18c-.69-.11-1.39-.19-2.08-.25-.42,0-.85-.07-1.28-.09a11.86,11.86,0,0,0,.73,1.36,12.55,12.55,0,0,0,1.91,2.33.3.3,0,0,1,.08.3.28.28,0,0,1-.22.21,4.85,4.85,0,0,1-1.61.12,3.33,3.33,0,0,1-.54-.07,46.08,46.08,0,0,0,4.32,7,45.72,45.72,0,0,0,20,15.41,42.48,42.48,0,0,0,5.95,1.8.31.31,0,0,1-.07.61Z"/><path class="cls-7" d="M49.91,51.53A6.08,6.08,0,0,0,52.85,50a4.68,4.68,0,0,0,1.36-2.18,4.62,4.62,0,0,0,.14-1.47,2.37,2.37,0,0,0-.6-1.22,2.52,2.52,0,0,0-1.82-.75l-4.39,0a2.65,2.65,0,0,0-2.46,1.92,3.65,3.65,0,0,0,.11,1.59,4.27,4.27,0,0,0,1.56,2.09A8.12,8.12,0,0,0,49.91,51.53Z"/><path class="cls-2" d="M49.91,51.83h-.08a8.19,8.19,0,0,1-3.28-1.68,4.62,4.62,0,0,1-1.66-2.23,4,4,0,0,1-.11-1.72.06.06,0,0,1,0,0,2.9,2.9,0,0,1,.83-1.35,3.05,3.05,0,0,1,1.9-.8h0l4.39,0a2.85,2.85,0,0,1,2,.85,2.67,2.67,0,0,1,.68,1.38v0a4.87,4.87,0,0,1-.14,1.57,5,5,0,0,1-1.45,2.32A6.34,6.34,0,0,1,50,51.82ZM45.38,46.3a3.26,3.26,0,0,0,.1,1.43,4.05,4.05,0,0,0,1.47,2,7.6,7.6,0,0,0,3,1.53,5.7,5.7,0,0,0,2.73-1.46,4.42,4.42,0,0,0,1.28-2,4.08,4.08,0,0,0,.13-1.35,2,2,0,0,0-.52-1,2.23,2.23,0,0,0-1.6-.66l-4.39,0a2.45,2.45,0,0,0-1.51.64A2.37,2.37,0,0,0,45.38,46.3Z"/><path class="cls-8" d="M45.84,47.32A21.3,21.3,0,0,0,50,47.6a21.65,21.65,0,0,0,3.29-.34,4.22,4.22,0,0,1-.84,1.81,4.4,4.4,0,0,1-2.53,1.51A5.37,5.37,0,0,1,47,49.11,5.26,5.26,0,0,1,45.84,47.32Z"/><ellipse class="cls-9" cx="50.79" cy="46" rx="2.11" ry="0.9" transform="translate(-0.37 0.41) rotate(-0.46)"/><path class="cls-2" d="M38.49,82.05a.32.32,0,0,1-.28-.2A24,24,0,0,1,37,73.72a25.11,25.11,0,0,1,.86-6.58.31.31,0,0,1,.37-.2,37.32,37.32,0,0,1,8.44,3.75.3.3,0,0,1-.33.51,34.94,34.94,0,0,0-8-3.58,27.65,27.65,0,0,0-.75,6.12,24.39,24.39,0,0,0,1.06,7.61L42.32,80a40,40,0,0,0,5.5-2.89.31.31,0,0,1,.42.09.3.3,0,0,1-.1.42,37.43,37.43,0,0,1-5.61,3L38.6,82Z"/><path class="cls-2" d="M64.52,82.1l-.11,0L60.5,80.55a39.14,39.14,0,0,1-5.57-3,.32.32,0,0,1-.09-.43.29.29,0,0,1,.42-.08,39.34,39.34,0,0,0,5.46,3c1.74.69,3.06,1.2,3.62,1.41A24.14,24.14,0,0,0,65.5,73.8a28,28,0,0,0-.67-6.13,35.22,35.22,0,0,0-8,3.48.32.32,0,0,1-.42-.1.3.3,0,0,1,.1-.42A37.22,37.22,0,0,1,65,67a.32.32,0,0,1,.38.21,26.13,26.13,0,0,1,.77,6.59,24.46,24.46,0,0,1-1.3,8.11.3.3,0,0,1-.16.17A.31.31,0,0,1,64.52,82.1Z"/><path class="cls-10" d="M39.64,78.9a56,56,0,0,1-.43-7.68,25.76,25.76,0,0,1,.57-5,32.11,32.11,0,0,1,9.37,5"/><path class="cls-2" d="M39.64,79.21a.3.3,0,0,1-.3-.27,55.34,55.34,0,0,1-.44-7.73,25.52,25.52,0,0,1,.58-5.06.32.32,0,0,1,.15-.19.33.33,0,0,1,.24,0A33,33,0,0,1,49.34,71a.31.31,0,1,1-.39.47,31.77,31.77,0,0,0-9-4.84,29.71,29.71,0,0,0-.49,4.61,58.19,58.19,0,0,0,.43,7.63.31.31,0,0,1-.26.35Z"/><path class="cls-10" d="M48,77.35a38.9,38.9,0,0,1-5.55,2.92l-3.94,1.47a24,24,0,0,1-1.18-8,25.54,25.54,0,0,1,.85-6.5,36.59,36.59,0,0,1,8.36,3.71"/><path class="cls-11" d="M47.81,71.11a2.27,2.27,0,0,1-1.59.77c-2.39-.14-5.77-.73-5.62-.49.3.46,3.61.6,4.18,1.85.77,1.67-5.6,1.15-5.43,1.58.1.27,6.1-.42,5.95,1.81-.11,1.61-6.37,4.69-6.37,4.69s5.38-1.31,8-3.44.15-5.7.15-5.7"/><path class="cls-2" d="M38.49,82.05a.32.32,0,0,1-.28-.2A24,24,0,0,1,37,73.72a25.11,25.11,0,0,1,.86-6.58.31.31,0,0,1,.37-.2,37.32,37.32,0,0,1,8.44,3.75.3.3,0,0,1-.33.51,34.94,34.94,0,0,0-8-3.58,27.65,27.65,0,0,0-.75,6.12,24.39,24.39,0,0,0,1.06,7.61L42.32,80a40,40,0,0,0,5.5-2.89.31.31,0,0,1,.42.09.3.3,0,0,1-.1.42,37.43,37.43,0,0,1-5.61,3L38.6,82Z"/><path class="cls-10" d="M63.41,78.94a55.53,55.53,0,0,0,.53-7.68,25.29,25.29,0,0,0-.5-5A32.29,32.29,0,0,0,54,71.14"/><path class="cls-2" d="M63.41,79.24h0a.31.31,0,0,1-.26-.35,56,56,0,0,0,.53-7.62,28.94,28.94,0,0,0-.43-4.62,31.88,31.88,0,0,0-9,4.73.31.31,0,0,1-.43,0,.3.3,0,0,1,0-.43A32.57,32.57,0,0,1,63.35,66a.29.29,0,0,1,.24,0,.32.32,0,0,1,.15.19,27.12,27.12,0,0,1,.51,5.07A56.66,56.66,0,0,1,63.71,79,.3.3,0,0,1,63.41,79.24Z"/><path class="cls-10" d="M55.09,77.27a39.08,39.08,0,0,0,5.52,3l3.91,1.53a24,24,0,0,0,1.29-8,25.41,25.41,0,0,0-.76-6.5,36,36,0,0,0-8.41,3.6"/><path class="cls-11" d="M55.35,71a2.26,2.26,0,0,0,1.58.79c2.38-.11,5.77-.66,5.62-.42-.3.45-3.61.56-4.21,1.8-.79,1.66,5.59,1.22,5.42,1.65-.11.26-6.1-.5-6,1.73.09,1.61,6.31,4.77,6.31,4.77S58.73,80,56.16,77.82s-.07-5.7-.07-5.7"/><path class="cls-2" d="M64.52,82.1l-.11,0L60.5,80.55a39.14,39.14,0,0,1-5.57-3,.32.32,0,0,1-.09-.43.29.29,0,0,1,.42-.08,39.34,39.34,0,0,0,5.46,3c1.74.69,3.06,1.2,3.62,1.41A24.14,24.14,0,0,0,65.5,73.8a28,28,0,0,0-.67-6.13,35.22,35.22,0,0,0-8,3.48.32.32,0,0,1-.42-.1.3.3,0,0,1,.1-.42A37.22,37.22,0,0,1,65,67a.32.32,0,0,1,.38.21,26.13,26.13,0,0,1,.77,6.59,24.46,24.46,0,0,1-1.3,8.11.3.3,0,0,1-.16.17A.31.31,0,0,1,64.52,82.1Z"/><circle class="cls-10" cx="51.81" cy="75.01" r="5.48"/><path class="cls-2" d="M51.81,80.79h0a5.79,5.79,0,0,1,0-11.57h0A5.79,5.79,0,0,1,57.6,75h0A5.8,5.8,0,0,1,51.81,80.79Zm0-11a5.17,5.17,0,0,0-3.68,8.81,5.11,5.11,0,0,0,3.65,1.54h0a5.18,5.18,0,0,0,0-10.35Z"/><path class="cls-4" d="M55.84,75.06a4.28,4.28,0,0,0-.06-.72L54.9,75v.08a3.1,3.1,0,1,1-1.34-2.58l.79-.57a4,4,0,1,0,1.49,3.15Z"/><path class="cls-4" d="M55,72.59a3.77,3.77,0,0,1,.48.8l-3.71,2.7-1.53-1V74l1.53,1Z"/><path class="cls-2" d="M50.41,55.57a.31.31,0,0,1-.3-.27l-.46-3.81a.31.31,0,1,1,.61-.07l.46,3.81a.31.31,0,0,1-.27.34Z"/><path class="cls-2" d="M49.16,55.72a9.06,9.06,0,0,1-4.54-1.26.3.3,0,0,1-.11-.42.32.32,0,0,1,.42-.11,8.45,8.45,0,0,0,4.41,1.18,9.37,9.37,0,0,0,7-3.9.3.3,0,0,1,.49.35,9.93,9.93,0,0,1-7.46,4.16Z"/><path class="cls-1" d="M72.68,70.78s9.58,3,9.58,12.3-9.89,7.06-10.84,7c-3.81-.43-.1-2.88-1.25-4.55s-1.83-13.24-.68-13.61S72.26,70.47,72.68,70.78Z"/><path class="cls-2" d="M72.25,90.61l-1.49,0a.32.32,0,0,1-.3-.32.31.31,0,0,1,.32-.29c4.46.2,7.59-.51,9.31-2.11,1.52-1.4,1.78-3.27,1.84-5.08.22-7.38-9.31-12-9.41-12.06a.31.31,0,0,1-.14-.41.3.3,0,0,1,.4-.15,24.08,24.08,0,0,1,5,3.35c3.24,2.84,4.9,6.06,4.8,9.29a7.31,7.31,0,0,1-2,5.51C78.84,89.86,76.13,90.61,72.25,90.61Z"/><path class="cls-2" d="M73.33,90.47a.3.3,0,0,1-.3-.27,4,4,0,0,0-1.73-3.06.31.31,0,0,1-.12-.41.3.3,0,0,1,.42-.12,4.54,4.54,0,0,1,2,3.53.32.32,0,0,1-.27.33Z"/><path class="cls-4" d="M70.22,90.3a7,7,0,0,1-3.39.38c-1.75-.51-4.42-1.79-5.4-3.31s.42-2.46,1.36-2.62,2.77.89,3.19.53,0-1.42-.68-2.36-5.18-1.31-4-4.39,5.86-.16,5.86-.16c1.84-1.21,5,.57,5,.57l1.93.11c1.94.1,2.72,2.88,3.35,4.87a14,14,0,0,1,.48,2.21C77.91,91.09,70.22,90.3,70.22,90.3Z"/><path class="cls-2" d="M67.75,91.21a6,6,0,0,1-3.6-1.37c-.33-.24-.68-.48-1-.7-1.42-.94-2.9-1.91-2.21-3.49.85-1.93,2.7-1.24,3.81-.82a2.85,2.85,0,0,0,1,.27,1,1,0,0,0,.08-.85,2.88,2.88,0,0,0-2.05-1.85,4.18,4.18,0,0,1-2.7-2.29,2.6,2.6,0,0,1,.29-2.29c1.4-2.36,6,.17,6.16.28a.31.31,0,0,1,.12.42.31.31,0,0,1-.42.11c-1.17-.66-4.42-2-5.34-.5a2.06,2.06,0,0,0-.24,1.78A3.6,3.6,0,0,0,64,81.82,3.51,3.51,0,0,1,66.4,84.1a1.54,1.54,0,0,1-.21,1.4c-.35.4-1,.17-1.69-.1-1.37-.51-2.46-.8-3,.5-.46,1,.46,1.72,2,2.73.35.23.71.47,1.05.72a5,5,0,0,0,5.15.89A9.17,9.17,0,0,1,70.72,90a10.13,10.13,0,0,1,1.39,0c1.73,0,3.88,0,5.08-2.5a4.51,4.51,0,0,0-.14-3.94c-.11-.28-.21-.54-.29-.81-.37-1.18-1.5-3.07-2.76-3.35a2.77,2.77,0,0,0-2.22.51,2.21,2.21,0,0,0-.86,1.76,1.6,1.6,0,0,0,1,1.5,2.82,2.82,0,0,0,2.86-.22.31.31,0,1,1,.39.47,3.43,3.43,0,0,1-3.52.3,2.2,2.2,0,0,1-1.32-2.06,2.83,2.83,0,0,1,1.09-2.23,3.35,3.35,0,0,1,2.73-.62c1.6.35,2.82,2.49,3.21,3.76.08.25.17.51.28.78a5.12,5.12,0,0,1,.12,4.41c-1.37,2.89-3.84,2.86-5.64,2.85a8.57,8.57,0,0,0-1.29,0,6.84,6.84,0,0,0-1,.24A6.88,6.88,0,0,1,67.75,91.21Z"/><path class="cls-2" d="M68.55,84a3.24,3.24,0,0,1-1.09-.18,2.37,2.37,0,0,1-1.76-2.11,4.75,4.75,0,0,1,.77-2.49,2.89,2.89,0,0,1,2-1.55c1.42-.11,4,1.12,4.12,1.17a.31.31,0,0,1-.27.55s-2.54-1.21-3.81-1.11A2.34,2.34,0,0,0,67,79.54a4.13,4.13,0,0,0-.68,2.14,1.8,1.8,0,0,0,1.34,1.57,2.58,2.58,0,0,0,2.73-.66.31.31,0,0,1,.47.4A3,3,0,0,1,68.55,84Z"/><path class="cls-1" d="M30.9,85.6c-.73,3-1.4,6.17-2,9.46-.22,1.23-.42,2.45-.61,3.66H18.55c.56-2.82,1.07-5.33,1.52-7.47C22.39,80.2,23.34,77,26,74.17a15.82,15.82,0,0,1,3.5-2.75L31.81,71Z"/><path class="cls-2" d="M18.55,99H18.5a.3.3,0,0,1-.25-.35c.34-2.12.75-4.28,1.22-6.42,2.22-10.18,4.14-19,10-21.11a7.75,7.75,0,0,1,2.38-.48.31.31,0,1,1,0,.61,7.61,7.61,0,0,0-2.2.44c-5.5,2-7.38,10.67-9.57,20.67-.46,2.13-.87,4.28-1.21,6.39A.32.32,0,0,1,18.55,99Z"/><path class="cls-2" d="M28.31,99h0a.31.31,0,0,1-.26-.35c.52-3.26,1.14-6.55,1.84-9.78.24-1.11.5-2.24.76-3.36a.3.3,0,0,1,.37-.22.3.3,0,0,1,.22.36c-.26,1.12-.52,2.24-.76,3.35-.69,3.22-1.31,6.5-1.82,9.74A.32.32,0,0,1,28.31,99Z"/><path class="cls-12" d="M43.6,42.4a10.08,10.08,0,1,1-8.75-11.27A10.09,10.09,0,0,1,43.6,42.4"/><path class="cls-13" d="M35.08,50.75a10.09,10.09,0,0,1-1.85-19.6,10.08,10.08,0,1,0,3.54,19.67,10.72,10.72,0,0,1-1.69-.07"/><path class="cls-12" d="M78.26,42.45a10.08,10.08,0,1,1-8.74-11.26,10.09,10.09,0,0,1,8.74,11.26"/><path class="cls-13" d="M69.75,50.81a10.09,10.09,0,0,1-1.85-19.6,10.08,10.08,0,1,0,3.54,19.67,10.67,10.67,0,0,1-1.69-.07"/><path class="cls-2" d="M33.6,51.53a9.72,9.72,0,0,1-1.31-.09,10.39,10.39,0,0,1-9-11.6,10.39,10.39,0,1,1,20.61,2.6A10.41,10.41,0,0,1,33.6,51.53Zm0-20.17a9.78,9.78,0,0,0-9.68,8.55,9.8,9.8,0,0,0,8.48,10.93,10.16,10.16,0,0,0,1.23.08,9.79,9.79,0,0,0,7.72-15.78,9.69,9.69,0,0,0-6.5-3.7A8.84,8.84,0,0,0,33.57,31.36Z"/><path class="cls-2" d="M68.26,51.58A11.48,11.48,0,0,1,67,51.5a10.39,10.39,0,1,1,11.6-9h0A10.39,10.39,0,0,1,68.26,51.58Zm0-20.17a9.8,9.8,0,1,0,1.23.08A10.16,10.16,0,0,0,68.25,31.41Zm10,11Z"/><circle class="cls-2" cx="66.46" cy="42.23" r="4.92"/><path class="cls-2" d="M66.46,47.54h-.21a5.3,5.3,0,0,1-3.39-9.19,5.3,5.3,0,1,1,3.6,9.2Zm0-9.85a4.56,4.56,0,0,0-4.53,4.36,4.54,4.54,0,0,0,9.08.36l.38,0-.38,0a4.54,4.54,0,0,0-4.36-4.71Z"/><path class="cls-14" d="M62.39,44.27a16.17,16.17,0,0,1,3.75-2.89,16,16,0,0,1,4-1.59,4.73,4.73,0,0,0-3.32-2,4.58,4.58,0,0,0-4.49,2.8A4.89,4.89,0,0,0,62.39,44.27Z"/><circle class="cls-4" cx="68.47" cy="40.56" r="1.51"/><circle class="cls-2" cx="36.12" cy="42.23" r="4.92"/><path class="cls-2" d="M36.12,47.54h-.21a5.3,5.3,0,0,1-3.39-9.19,5.3,5.3,0,1,1,3.6,9.2Zm0-9.85a4.56,4.56,0,0,0-4.53,4.36,4.54,4.54,0,0,0,7.62,3.52,4.47,4.47,0,0,0,1.45-3.16l.39,0-.39,0A4.54,4.54,0,0,0,36.3,37.7Z"/><path class="cls-14" d="M32.05,44.27a16.27,16.27,0,0,1,7.72-4.48,4.73,4.73,0,0,0-3.32-2A4.57,4.57,0,0,0,32,40.55,4.89,4.89,0,0,0,32.05,44.27Z"/><circle class="cls-4" cx="38.13" cy="40.56" r="1.51"/><path class="cls-2" d="M28.46,26a.32.32,0,0,1-.25-.12.31.31,0,0,1,.06-.43A15.29,15.29,0,0,1,41.34,22.8a.3.3,0,0,1,.22.37.31.31,0,0,1-.37.22,14.65,14.65,0,0,0-12.55,2.54A.3.3,0,0,1,28.46,26Z"/><path class="cls-2" d="M74.3,26.16a.33.33,0,0,1-.19-.06,14.54,14.54,0,0,0-5.23-2.54,14.8,14.8,0,0,0-7.31,0,.32.32,0,0,1-.38-.22.31.31,0,0,1,.23-.37,15.26,15.26,0,0,1,13.06,2.64.31.31,0,0,1,.06.43A.3.3,0,0,1,74.3,26.16Z"/><path class="cls-5" d="M46.62,57.8a16.82,16.82,0,0,0,3.61.21,16.12,16.12,0,0,0,3.49-.59,3.73,3.73,0,0,1-7.1.38Z"/><path class="cls-15" d="M53.34,73.09s2.41-4.73,7.44-4.73c4.12,0,7.13,2.52,7.13,8,0,8.14-14.57,16-14.57,16s-14.78-8-14.78-16.19c0-5.42,3-7.94,7.14-7.94C50.72,68.16,53.34,73.09,53.34,73.09Z"/><path class="cls-2" d="M53.34,93a.4.4,0,0,1-.15,0A57.72,57.72,0,0,1,45.6,87.8c-5.08-4.17-7.66-8.08-7.66-11.63,0-5.27,2.84-8.42,7.59-8.42,4.39,0,7,3.47,7.81,4.74.79-1.23,3.3-4.53,7.6-4.53,4.76,0,7.6,3.15,7.6,8.42C68.54,79.92,66,83.8,61,87.9A53.87,53.87,0,0,1,53.48,93,.32.32,0,0,1,53.34,93ZM45.53,68.36c-4.44,0-7,2.85-7,7.81,0,7.61,13.25,15.32,14.79,16.19,1.53-.86,14.59-8.37,14.59-16,0-5-2.55-7.81-7-7.81-4.88,0-7.3,4.61-7.33,4.66a.3.3,0,0,1-.27.17h0a.31.31,0,0,1-.27-.17S50.42,68.36,45.53,68.36Z"/></g></g></svg>