<svg xmlns="http://www.w3.org/2000/svg" xmlns:xlink="http://www.w3.org/1999/xlink" viewBox="0 0 105.53 125.29"><defs><style>.cls-1{fill:#f6ab81;}.cls-2{fill:#d84a1b;opacity:0.3;}.cls-3{fill:#010101;}.cls-4{fill:#fff;}.cls-5{fill:#ef7860;}.cls-6{fill:#f3c8ba;}.cls-7{fill:#f39ea1;}.cls-8{fill:#fbdceb;}.cls-9{fill:#dd7878;}.cls-10{fill:#23a038;}.cls-11{fill:#197934;opacity:0.9;}.cls-12{fill:#231f20;}.cls-13{fill:#ffe370;}.cls-14{fill:#eebc51;}.cls-15{fill:#2c425f;}.cls-16{fill:#f3986c;}.cls-17{fill:url(#Безымянный_градиент_33);}.cls-18{fill:url(#Безымянный_градиент_33-2);}</style><radialGradient id="Безымянный_градиент_33" cx="130.55" cy="80.61" r="11.44" gradientTransform="translate(-87.84 24.18) scale(1.26 0.7)" gradientUnits="userSpaceOnUse"><stop offset="0" stop-color="#e83c55" stop-opacity="0.6"/><stop offset="1" stop-color="#e83c55" stop-opacity="0"/></radialGradient><radialGradient id="Безымянный_градиент_33-2" cx="91.21" cy="80.61" r="11.44" xlink:href="#Безымянный_градиент_33"/></defs><g id="Слой_2" data-name="Слой 2"><g id="Слой_1-2" data-name="Слой 1"><path class="cls-1" d="M32.76,93.67s-2.71,16.58-2,26.46c0,0,22,11.53,48.58.12,0,0,.11-21.64-4.12-31.88C70.87,77.87,32.76,93.67,32.76,93.67Z"/><path class="cls-2" d="M75.22,89.43c-1.51-3.2-7.1-2.65-12.75-2.42,2.5.63,4.4,1.78,5.34,3.62,5.24,10.24,5.31,29.06,5.29,31.89a63.74,63.74,0,0,0,6.12-2.27S79.81,99.2,75.22,89.43Z"/><path class="cls-3" d="M30.76,120.36a.22.22,0,0,1-.23-.22c-.12-5.13.93-19.75.94-19.9a.22.22,0,0,1,.24-.21.23.23,0,0,1,.22.24c0,.15-1.06,14.75-.95,19.86a.21.21,0,0,1-.22.23Z"/><path class="cls-3" d="M79.4,120.3a.22.22,0,0,1-.23-.22c0-7.2-2-25.26-2.06-25.45a.23.23,0,0,1,.45,0c0,.18,2.06,18.27,2.06,25.5A.22.22,0,0,1,79.4,120.3Z"/><path class="cls-4" d="M62.52,105.78c-3.42-5.53-9.77.36-9.77.36s-6.35-5.89-9.76-.36c-5.16,8.37,9.76,14.12,9.76,14.12S67.68,114.15,62.52,105.78Z"/><path class="cls-1" d="M28.77,94.64a1.12,1.12,0,0,0-.6.16,1.21,1.21,0,0,0-.34,1,42.8,42.8,0,0,0,.32,4.93,12.22,12.22,0,0,0,.25,1.45,14.38,14.38,0,0,0,.88,2.34,15.32,15.32,0,0,0,1.53,2.85,5,5,0,0,0,2.56,1.9,16,16,0,0,0,.29-2.59c.06-1.81-.18-3.61-.22-5.42a14.62,14.62,0,0,1,.22-3.17A3.55,3.55,0,0,0,33.72,96C33,94.46,30.13,94.54,28.77,94.64Z"/><path class="cls-3" d="M32.27,109.28a.23.23,0,0,1-.15,0,5.43,5.43,0,0,1-.83-.83c-5.19-6.25-3.13-15.51-3.11-15.61a.23.23,0,0,1,.27-.17.24.24,0,0,1,.18.28c0,.09-2,9.13,3,15.21a5.6,5.6,0,0,0,.77.77.23.23,0,0,1,0,.32A.23.23,0,0,1,32.27,109.28Z"/><path class="cls-1" d="M74.88,95.5A78.44,78.44,0,0,0,92,86.88,35.9,35.9,0,0,0,105.3,70.07l-3.71,1.08,2.63-4-3.4.61,1.7-2.16a17.53,17.53,0,0,1-2.62-2.47,8.28,8.28,0,0,1-2-3.09s9.9-31.77,4.65-37.33-28.08,9.08-28.08,9.08-9.41-7.87-21-8.19-21.76,8-21.76,8S9.52,18,4,22.32,8.26,59.81,8.26,59.81a12.44,12.44,0,0,1-2,2.63A36.54,36.54,0,0,1,3,65.36l1.85,2.78L1.31,67.06l2.78,4L.23,69.84a39.5,39.5,0,0,0,3.29,6.57A42.26,42.26,0,0,0,10.71,85,48.07,48.07,0,0,0,27.06,94.7S51.89,102.27,74.88,95.5Z"/><path class="cls-4" d="M8.26,59.81,31.73,31.6S8.14,17.39,4,22.32,6.87,56.88,8.26,59.81Z"/><path class="cls-5" d="M8.26,59.81S-.67,28.64,3.35,23.25,30,33.76,30,33.76"/><path class="cls-4" d="M97.79,60.11,74.36,31.86S98,17.68,102.14,22.62,99.18,57.18,97.79,60.11Z"/><path class="cls-5" d="M97.79,60.11s9-31.16,5-36.56S76.13,34,76.13,34"/><path class="cls-4" d="M8.24,82.34C7,81.31,20.37,89,31.18,85.73c6.82-2,11.11-7.85,13.6-12.22a5.91,5.91,0,0,1,1.68-2c2.46-1.82,5.94-1.18,8.1,0A8.77,8.77,0,0,1,56.7,73.2c.34.44.83,1,1.43,1.74a41.09,41.09,0,0,0,2.84,3A27.27,27.27,0,0,0,79.5,85.46C91.38,85.82,99,80.85,99,80.85S81.65,99.38,52.43,98.57C22.12,97.74,15.64,88.59,8.24,82.34Z"/><path class="cls-2" d="M8.24,82.34s16.42,11.12,45.82,11C83.22,93.19,99.89,79.4,99.89,79.4S85.53,99.37,53,98.57C22.66,97.83,15.64,88.59,8.24,82.34Z"/><path class="cls-6" d="M19.67,91S37,97,52.26,96s34.62-6.16,34.62-6.16S74.91,99,53,99.16,19.67,91,19.67,91Z"/><path class="cls-3" d="M31.1,96.27H31c-.11,0-11.82-3.78-20.47-11.12C3.32,79,.05,70,0,69.91a.22.22,0,0,1,0-.23.22.22,0,0,1,.24-.06l3.21,1L1.12,67.19a.24.24,0,0,1,.26-.35l2.93.9L2.82,65.49a.21.21,0,0,1,.05-.3,37.78,37.78,0,0,0,3.22-2.91A13.23,13.23,0,0,0,8,59.79C7.33,57.48-1.7,26.43,3.83,22.14s25.83,7.93,27.88,9.18c1.22-.95,11-8.25,21.79-8s19.8,7.2,21,8.14c2.11-1.33,23.09-14.42,28.24-9,2.23,2.37,2.13,9.42-.3,21-1.72,8.13-4,15.74-4.28,16.54A8.64,8.64,0,0,0,100.07,63a16.64,16.64,0,0,0,2.58,2.43.25.25,0,0,1,.1.16.22.22,0,0,1,0,.17l-1.32,1.69,2.8-.51a.21.21,0,0,1,.23.1.23.23,0,0,1,0,.25l-2.29,3.49,3.11-.9a.22.22,0,0,1,.23.06.22.22,0,0,1,.05.23A36.33,36.33,0,0,1,92.14,87.07,78.92,78.92,0,0,1,75,95.72a.22.22,0,0,1-.28-.15.23.23,0,0,1,.14-.29,78.33,78.33,0,0,0,17.08-8.6,36,36,0,0,0,13-16.26l-3.26,1a.24.24,0,0,1-.25-.09.23.23,0,0,1,0-.26l2.33-3.56-2.87.52a.24.24,0,0,1-.23-.11.23.23,0,0,1,0-.26l1.56-2a21.12,21.12,0,0,1-2.47-2.36,8.44,8.44,0,0,1-2-3.19.24.24,0,0,1,0-.12c.1-.32,9.8-31.71,4.71-37.11-2.07-2.2-7.51-1.33-15.74,2.5A118.28,118.28,0,0,0,74.59,32a.24.24,0,0,1-.27,0c-.09-.08-9.48-7.83-20.84-8.14s-21.5,7.87-21.6,8a.24.24,0,0,1-.27,0c-.22-.13-22.13-13.46-27.5-9.29-2.2,1.71-2.15,8.67.14,20.14,1.75,8.72,4.2,17,4.23,17.11a.21.21,0,0,1,0,.17,12.61,12.61,0,0,1-2,2.67,36.5,36.5,0,0,1-3.1,2.82L5.05,68a.23.23,0,0,1,0,.26.22.22,0,0,1-.25.08l-2.92-.89,2.4,3.47a.23.23,0,0,1-.25.35L.62,70.2A39.84,39.84,0,0,0,10.86,84.79c8.57,7.28,20.2,11,20.31,11a.23.23,0,0,1,.15.29A.24.24,0,0,1,31.1,96.27Z"/><path class="cls-6" d="M49.48,86.63a13.73,13.73,0,0,0,3.09.38,15.57,15.57,0,0,0,3-.6,5,5,0,0,1-2.86,2C51.14,88.58,49.48,86.63,49.48,86.63Z"/><path class="cls-7" d="M50.42,77.92c-2.36,0-6-5.52,0-5.5S53,78,50.42,77.92Z"/><path class="cls-3" d="M50.45,78.15h0c-1.59,0-3.53-2.12-3.51-3.8,0-.81.48-2.16,3.51-2.16h0c2.15,0,3,.71,3.33,1.29A2.53,2.53,0,0,1,53.55,76,4.15,4.15,0,0,1,50.45,78.15Zm0-5.5c-2,0-3,.61-3.05,1.7,0,1.42,1.73,3.32,3.06,3.34h0a3.7,3.7,0,0,0,2.72-1.9,2.08,2.08,0,0,0,.25-2.08c-.39-.68-1.4-1-2.93-1.06Z"/><ellipse class="cls-8" cx="51.23" cy="74.02" rx="0.72" ry="1.58" transform="translate(-24.8 122.22) rotate(-87.68)"/><path class="cls-9" d="M48.46,75.31a5,5,0,0,0,2,.54,7.35,7.35,0,0,0,2.28-.54s-.85,1.89-2.27,1.81S48.46,75.31,48.46,75.31Z"/><path class="cls-1" d="M50.54,19.28c-.46-.5-2.27-4.58-.26-8s3.94-5,6-7.37A17.91,17.91,0,0,0,58.89.23l-.25,5.34A9.51,9.51,0,0,1,60,14.22a21,21,0,0,1-4.43,8.22"/><path class="cls-3" d="M55.58,22.67a.2.2,0,0,1-.16-.07.22.22,0,0,1,0-.32,20.79,20.79,0,0,0,4.38-8.13,9.36,9.36,0,0,0-1.33-8.43.34.34,0,0,1-.05-.17l.2-4.35a22.46,22.46,0,0,1-2.15,2.91c-.58.66-1.15,1.28-1.7,1.88a30.8,30.8,0,0,0-4.28,5.46c-1.94,3.25-.2,7.21.23,7.68a.23.23,0,0,1-.34.31c-.53-.59-2.36-4.75-.28-8.23a30.5,30.5,0,0,1,4.33-5.53c.55-.6,1.12-1.21,1.69-1.87A18.13,18.13,0,0,0,58.68.14.22.22,0,0,1,58.94,0a.23.23,0,0,1,.18.23l-.25,5.25a9.89,9.89,0,0,1,1.36,8.79,21.41,21.41,0,0,1-4.49,8.32A.24.24,0,0,1,55.58,22.67Z"/><path class="cls-3" d="M57.31,11.73l-.09,0a.23.23,0,0,1-.13-.29,26.21,26.21,0,0,0,1.32-5.88.23.23,0,0,1,.46,0,27.56,27.56,0,0,1-1.35,6A.24.24,0,0,1,57.31,11.73Z"/><path class="cls-10" d="M58.64,28.91s10.67,6.14,11.83,4.46,1.85-4.11,2.07-8.87c.26-5.46-.49-8.9-1.56-9.11s-12,4-12,4"/><path class="cls-11" d="M72,29s-.47,3-2.62,2.7-8-2.45-8.8-3.48,1.6-1.89,3.59-1.88-3.8-.62-3.61-2.85,8.16-3.17,7.87-3.17c-.65,0-9.3.49-9.38-.56-.11-1.59-.56,8.9-.56,8.9S69.14,35,70.29,33.48A13,13,0,0,0,72,29Z"/><path class="cls-12" d="M69.68,33.89c-.89,0-2.52-.43-5.66-1.91-2.78-1.31-5.46-2.85-5.49-2.87a.22.22,0,0,1-.08-.31.23.23,0,0,1,.31-.09s2.69,1.55,5.46,2.86c5,2.38,5.91,1.88,6.06,1.67.86-1.26,1.78-3.28,2-8.75A29.52,29.52,0,0,0,72,18c-.39-2.11-.94-2.38-1.1-2.41-.73-.15-7.65,2.37-11.84,4a.21.21,0,0,1-.29-.13.23.23,0,0,1,.13-.3c1.12-.43,11-4.23,12.09-4,1.3.26,2,4,1.75,9.35-.21,4.5-.82,7.1-2.11,9A1.09,1.09,0,0,1,69.68,33.89Z"/><path class="cls-10" d="M47.71,28.4s-11.19,5.12-12.18,3.33-1.46-4.27-1.24-9c.26-5.47,1.33-8.82,2.41-8.93s11.54,5.1,11.54,5.1"/><path class="cls-11" d="M34.41,27.28s.19,3,2.35,2.93,8.21-1.69,9.08-2.65-1.41-2-3.39-2.2,3.84-.26,3.86-2.5S38.48,18.94,38.77,19c.65.06,9.22,1.35,9.39.32.26-1.57-.27,8.91-.27,8.91s-11.2,5.28-12.2,3.66A13,13,0,0,1,34.41,27.28Z"/><path class="cls-3" d="M36.57,32.34c-.81,0-1.1-.25-1.25-.5-1.1-2-1.47-4.65-1.26-9.14.25-5.34,1.3-9,2.62-9.15,1.11-.12,10.59,4.59,11.66,5.13a.22.22,0,0,1,.11.3.24.24,0,0,1-.31.11c-4-2-10.67-5.16-11.42-5.09-.16,0-.73.24-1.32,2.3a30.36,30.36,0,0,0-.88,6.42c-.26,5.46.46,7.56,1.21,8.89.12.23.93.81,6.18-1.09,2.88-1,5.68-2.32,5.71-2.33a.23.23,0,0,1,.3.11.24.24,0,0,1-.11.31S45,29.9,42.07,31A18.51,18.51,0,0,1,36.57,32.34Z"/><circle class="cls-10" cx="53.53" cy="23.97" r="7.17" transform="translate(-4.77 30.43) rotate(-30.45)"/><path class="cls-3" d="M53.53,31.37h-.35a7.4,7.4,0,0,1-7-7.74A7.4,7.4,0,0,1,59,19a7.41,7.41,0,0,1-5.47,12.38Zm0-14.34A6.94,6.94,0,0,0,53.2,30.9a6.94,6.94,0,0,0,7.26-6.6h0A6.94,6.94,0,0,0,53.85,17Z"/><path class="cls-3" d="M69.68,33.89c-.89,0-2.52-.43-5.66-1.91-2.78-1.31-5.46-2.85-5.49-2.87a.22.22,0,0,1-.08-.31.23.23,0,0,1,.31-.09s2.69,1.55,5.46,2.86c5,2.38,5.91,1.88,6.06,1.67.86-1.26,1.78-3.28,2-8.75A29.52,29.52,0,0,0,72,18c-.39-2.11-.94-2.38-1.1-2.41-.73-.15-7.65,2.37-11.84,4a.21.21,0,0,1-.29-.13.23.23,0,0,1,.13-.3c1.12-.43,11-4.23,12.09-4,1.3.26,2,4,1.75,9.35-.21,4.5-.82,7.1-2.11,9A1.09,1.09,0,0,1,69.68,33.89Z"/><path class="cls-4" d="M58.78,24a4.8,4.8,0,0,0-.07-.93l-1.13.81V24a4,4,0,1,1-1.7-3.33l1-.73A5.21,5.21,0,1,0,58.78,24Z"/><path class="cls-4" d="M57.74,20.85a5.16,5.16,0,0,1,.61,1l-4.79,3.44-2-1.27,0-1.5,2,1.27Z"/><circle class="cls-13" cx="32.25" cy="64.21" r="10.38"/><path class="cls-14" d="M25.55,57.87s-3.2,8,1.33,12A11.78,11.78,0,0,0,38.41,72.2s-8.13,5.85-13.84-1C18,63.31,25.55,57.87,25.55,57.87Z"/><circle class="cls-13" cx="71.29" cy="64.15" r="10.38"/><path class="cls-14" d="M62.75,58.55s-1.36,7.22,3.17,11.22a11.79,11.79,0,0,0,11.53,2.36s-8.52,6.16-13.83-1S62.75,58.55,62.75,58.55Z"/><circle class="cls-3" cx="31.72" cy="67.71" r="6.23"/><path class="cls-4" d="M36.22,66.26a2.13,2.13,0,0,1-2.13,2.13A2.05,2.05,0,0,1,32,66.27a2.08,2.08,0,0,1,2.13-2.14A2.13,2.13,0,0,1,36.22,66.26Z"/><path class="cls-15" d="M26.8,67a4.63,4.63,0,0,0,2.28,4.8,5,5,0,0,0,6-.51,7.51,7.51,0,0,1-4.76-1.19A10,10,0,0,1,26.8,67Z"/><circle class="cls-3" cx="69.01" cy="67.71" r="6.23"/><path class="cls-4" d="M73.51,66.26a2.13,2.13,0,0,1-2.13,2.13,2.05,2.05,0,0,1-2.14-2.12,2.08,2.08,0,0,1,2.13-2.14A2.13,2.13,0,0,1,73.51,66.26Z"/><path class="cls-15" d="M64.09,67a4.63,4.63,0,0,0,2.28,4.8,5.05,5.05,0,0,0,5.95-.51,7.51,7.51,0,0,1-4.76-1.19A10,10,0,0,1,64.09,67Z"/><path class="cls-1" d="M81.92,65a19.5,19.5,0,0,0-10.64-2.48c-7.94.3-10.75,2.74-10.75,2.74s.44-13,11.94-11.36C81.92,55.2,81.92,65,81.92,65Z"/><path class="cls-16" d="M79,63.85s-.36-4.64-2-6.81a9.8,9.8,0,0,0-4.83-3s5,.4,6.83,3,2.94,8,2.94,8Z"/><path class="cls-3" d="M60.89,65.57a.22.22,0,0,1-.18-.08.22.22,0,0,1,0-.32c.11-.1,3-2.5,10.88-2.79,6.49-.24,10,2.44,10.18,2.55a.23.23,0,0,1-.28.36S78,62.61,71.64,62.84c-7.74.29-10.58,2.65-10.6,2.68A.23.23,0,0,1,60.89,65.57Z"/><path class="cls-1" d="M21.48,65a19.53,19.53,0,0,1,10.64-2.48c7.94.3,10.75,2.74,10.75,2.74s-.43-13-11.94-11.36C21.48,55.2,21.48,65,21.48,65Z"/><path class="cls-16" d="M40,63.85s-.36-4.64-2-6.81a9.8,9.8,0,0,0-4.83-3s5,.4,6.83,3,2.94,8,2.94,8Z"/><path class="cls-3" d="M42.52,65.57a.21.21,0,0,1-.15,0s-2.87-2.39-10.61-2.68c-6.3-.23-9.84,2.43-9.88,2.45a.23.23,0,1,1-.28-.36c.15-.11,3.7-2.79,10.18-2.55,7.93.29,10.77,2.69,10.89,2.79a.25.25,0,0,1,0,.33A.22.22,0,0,1,42.52,65.57Z"/><path class="cls-3" d="M83.78,65.67a5.35,5.35,0,0,1-2.2-.5.23.23,0,0,1-.09-.31.22.22,0,0,1,.3-.1,3.81,3.81,0,0,0,4.89-1.1.23.23,0,1,1,.37.26A3.85,3.85,0,0,1,83.78,65.67Z"/><path class="cls-3" d="M80.62,64.29a4.93,4.93,0,0,1-1.24-.16.23.23,0,0,1-.14-.29.22.22,0,0,1,.28-.15h0A3.44,3.44,0,0,0,83.6,62a.22.22,0,0,1,.31-.1.23.23,0,0,1,.1.31A3.64,3.64,0,0,1,80.62,64.29Z"/><path class="cls-3" d="M19.73,65.55a3.86,3.86,0,0,1-3.28-1.75.23.23,0,0,1,.06-.32.24.24,0,0,1,.32.06,3.8,3.8,0,0,0,4.88,1.1.24.24,0,0,1,.31.1.23.23,0,0,1-.1.31A5.28,5.28,0,0,1,19.73,65.55Z"/><path class="cls-3" d="M22.77,64.29a3.63,3.63,0,0,1-3.39-2,.23.23,0,0,1,.09-.31.22.22,0,0,1,.31.1,3.43,3.43,0,0,0,4.08,1.65.23.23,0,0,1,.14.44A4.8,4.8,0,0,1,22.77,64.29Z"/><path class="cls-3" d="M71.28,74.87a10.74,10.74,0,0,1-10.72-10.7h0a10.73,10.73,0,0,1,10.7-10.74h0a10.72,10.72,0,0,1,0,21.44Zm0-21h0A10.27,10.27,0,0,0,61,64.17h0A10.28,10.28,0,0,0,71.28,74.41h0a10.26,10.26,0,0,0,0-20.52Z"/><path class="cls-3" d="M32.23,74.87a10.74,10.74,0,0,1-10.72-10.7h0a10.73,10.73,0,0,1,10.7-10.74h0a10.72,10.72,0,0,1,0,21.44Zm0-21h0A10.27,10.27,0,0,0,22,64.17h0A10.27,10.27,0,0,0,32.23,74.41h0a10.26,10.26,0,0,0,0-20.52Z"/><path class="cls-1" d="M62.16,74.26s8.35-5.77,20.12-.71c0,0,2.23,5.53-5.18,6.12S63.1,80.85,62.16,74.26Z"/><path class="cls-3" d="M63.46,73.78a.23.23,0,0,1-.2-.11.23.23,0,0,1,.08-.31c.07,0,6.91-4,17.24-.85a.23.23,0,0,1,.15.29.22.22,0,0,1-.28.15c-10.13-3.11-16.81.76-16.88.8A.2.2,0,0,1,63.46,73.78Z"/><path class="cls-1" d="M41.66,74.26s-8.35-5.77-20.12-.71c0,0-2.23,5.53,5.18,6.12S40.72,80.85,41.66,74.26Z"/><path class="cls-3" d="M40.36,73.78a.2.2,0,0,1-.11,0c-.07,0-6.75-3.91-16.87-.8a.23.23,0,0,1-.29-.15.23.23,0,0,1,.15-.29,25.4,25.4,0,0,1,12.52-.78,15.7,15.7,0,0,1,4.72,1.63.22.22,0,0,1,.08.31A.23.23,0,0,1,40.36,73.78Z"/><path class="cls-3" d="M77.45,51.79h0C67.33,50,64,46.1,63.87,45.94a.23.23,0,1,1,.35-.29h0s3.38,4,13.27,5.68a.23.23,0,0,1,.19.27A.24.24,0,0,1,77.45,51.79Z"/><path class="cls-3" d="M26.64,51.79a.24.24,0,0,1-.23-.2.23.23,0,0,1,.2-.26c.08,0,8.33-1.22,13-5.7a.22.22,0,0,1,.32,0A.24.24,0,0,1,40,46c-4.82,4.58-13.22,5.81-13.3,5.82Z"/><path class="cls-1" d="M21.23,56.5s13.88.23,20.58-5.06-3.88-12-12.35-9.29C20.79,44.92,16.64,48.62,21.23,56.5Z"/><path class="cls-1" d="M61.57,47.2l6.83-4.58,15.52,5.64-1,8.24s-13.53-.83-19.3-2.83S61.57,47.2,61.57,47.2Z"/><path class="cls-3" d="M22.87,56.73a.23.23,0,0,1-.22-.23.22.22,0,0,1,.22-.23A48.16,48.16,0,0,0,40,52.52a.23.23,0,0,1,.3.12.22.22,0,0,1-.12.3A48.66,48.66,0,0,1,22.87,56.73Z"/><path class="cls-3" d="M80.51,56.73h0c-1.24-.19-3-.41-4.76-.64-5.17-.67-11-1.42-12.27-2.21a10.25,10.25,0,0,1-2.05-1.69.24.24,0,0,1,0-.33.22.22,0,0,1,.32,0,9.45,9.45,0,0,0,2,1.6c1.15.74,7.21,1.52,12.08,2.14,1.81.24,3.53.46,4.77.65a.23.23,0,0,1,.19.26A.24.24,0,0,1,80.51,56.73Z"/><path class="cls-3" d="M50.84,80.76a.24.24,0,0,1-.23-.19,23.12,23.12,0,0,1-.32-2.65.22.22,0,0,1,.22-.24.23.23,0,0,1,.24.21,22.72,22.72,0,0,0,.32,2.6.24.24,0,0,1-.19.27Z"/><path class="cls-3" d="M50.57,81.14a11.87,11.87,0,0,1-2.36-.23,9.56,9.56,0,0,1-4.08-1.77.23.23,0,0,1,0-.32.22.22,0,0,1,.32,0,9.39,9.39,0,0,0,3.9,1.67c4.14.83,8.08-.85,10.66-2.4a.23.23,0,0,1,.31.08.22.22,0,0,1-.08.31A17.13,17.13,0,0,1,50.57,81.14Z"/><path class="cls-3" d="M59.69,78.49a.24.24,0,0,1-.21-.15c-.14-.34-.83-.35-1.06-.32a.23.23,0,0,1-.05-.46c.05,0,1.24-.13,1.54.61a.24.24,0,0,1-.13.3Z"/><path class="cls-3" d="M50.52,80.84a.23.23,0,0,1-.23-.22l-.12-2.7a.23.23,0,0,1,.22-.24.23.23,0,0,1,.24.22l.12,2.7a.24.24,0,0,1-.22.24Z"/><ellipse class="cls-17" cx="76.1" cy="80.61" rx="17.82" ry="7.76"/><ellipse class="cls-18" cx="26.7" cy="80.61" rx="17.82" ry="7.76"/><path class="cls-4" d="M60.15,98.9a17.78,17.78,0,0,0-1.76-1l-.07,2.29c0,.58,1.52,1,2,.73C61.05,100.55,60.73,99.26,60.15,98.9Z"/><path class="cls-3" d="M60.59,101.54h-.06a.25.25,0,0,1-.16-.29,2.17,2.17,0,0,0-.15-1.78A3.82,3.82,0,0,0,58.13,98a.22.22,0,0,1-.16-.28.23.23,0,0,1,.28-.16,4.24,4.24,0,0,1,2.37,1.7,2.67,2.67,0,0,1,.19,2.14A.23.23,0,0,1,60.59,101.54Z"/><path class="cls-1" d="M74.07,100.38a5.05,5.05,0,0,0-3.3-3.48c-1.4.37-2.81.72-4.37,1.12,0,.24.21,1,.23,1.23a30.61,30.61,0,0,0,1,5.69,3.91,3.91,0,0,0,.79,1.7,2.84,2.84,0,0,0,3.24.51,5.74,5.74,0,0,0,2.46-2.44h0A10,10,0,0,0,74.07,100.38Z"/><path class="cls-4" d="M58.15,97.6a17.68,17.68,0,0,0-1.76-1l-.07,2.29c0,.57,1.52,1,2,.73C59.05,99.26,58.73,98,58.15,97.6Z"/><path class="cls-4" d="M57.12,99a3,3,0,0,1-.6-1A19.48,19.48,0,0,0,56,95.86,2.15,2.15,0,0,0,53.07,95c-.34.2-.65.51-1,.52A1.84,1.84,0,0,1,50.94,95a3.26,3.26,0,0,0-2.75-.63,2.2,2.2,0,0,0-1.64,2.14,2.31,2.31,0,0,0-2.7,2.73,1.78,1.78,0,0,0-1.25,2.33,3.49,3.49,0,0,0,.8,1c1,1,2.12,1.89,3.24,2.77s2.22,1.71,3.38,2.49A21,21,0,0,1,57.12,99Z"/><path class="cls-1" d="M70.63,106.49c.41-.66.16-1.47.24-2.24.15-1.42-.59-1.33-1.3-2.58-.16-.29.87-2.18.59-2.36a4.74,4.74,0,0,0-.94-.11c-1.64-.39-1.27-.63-2.84.08s-2.53,1.75-4.21,1.8a7.08,7.08,0,0,1-3.58-1A5.73,5.73,0,0,1,57.12,99a21,21,0,0,0-7.1,8.83,28.15,28.15,0,0,0,4.49,2.49,16.51,16.51,0,0,0,9.12,1.37A16.51,16.51,0,0,0,71.29,108C71.88,107.55,70.23,107.13,70.63,106.49Z"/><path class="cls-1" d="M45.46,96.61a1.32,1.32,0,0,1,1.18,0c0,.52,0-.45,0,.07l-1.17-.07a1.57,1.57,0,0,0-.65,0A1.49,1.49,0,0,0,44,98a2.51,2.51,0,0,1-.47,1.48c-.25.26-.62.38-.87.65a1.41,1.41,0,0,0-.14,1.53,4.13,4.13,0,0,0,1.05,1.24l1.58,1.45a19.23,19.23,0,0,0,3.34,2.3A33.16,33.16,0,0,1,45,108.37a7.68,7.68,0,0,1-1.53.59c-.5.12-1.18.6-1.68.69-2,.37-4,1-6,.72-.5-.08-1,.1-1.5-.1a7.22,7.22,0,0,1-2.38-2.13,3,3,0,0,1-.78-1.68,6.32,6.32,0,0,1,.47-3.64c.65-1.38,2.38-1.13,3.72-1.86a52.58,52.58,0,0,1,6.47-2.47C43,98,44.24,97,45.46,96.61Z"/><path class="cls-3" d="M35.34,101.19a.23.23,0,0,1-.08-.44s4.59-1.86,8.35-3.25a.24.24,0,0,1,.3.14.23.23,0,0,1-.14.29c-3.76,1.39-8.3,3.22-8.34,3.24Z"/><path class="cls-3" d="M53.93,97.31a.22.22,0,0,1-.15-.06s-2.68-2.31-4.35-2.53a2.55,2.55,0,0,0-2.2.5,1.1,1.1,0,0,0-.25,1,.23.23,0,0,1-.18.27.23.23,0,0,1-.27-.18,1.5,1.5,0,0,1,.36-1.39,2.94,2.94,0,0,1,2.6-.65c1.81.25,4.48,2.55,4.59,2.65a.23.23,0,0,1,0,.32A.23.23,0,0,1,53.93,97.31Z"/><path class="cls-3" d="M43.69,99.43a.22.22,0,0,1-.22-.22A3.43,3.43,0,0,1,44.15,97a2.17,2.17,0,0,1,1.53-.69A6.73,6.73,0,0,1,50,97.85a.23.23,0,1,1-.3.34,6.42,6.42,0,0,0-3.95-1.47,1.67,1.67,0,0,0-1.21.54,3,3,0,0,0-.58,1.92.21.21,0,0,1-.21.24Z"/><path class="cls-3" d="M61.3,112.14c-6,0-12.06-4.55-15.33-7l-1.23-.92c-1.78-1.28-2.61-2.3-2.62-3.23a2,2,0,0,1,1-1.6c1.53-1.15,4.61,1.19,4.74,1.29a.23.23,0,1,1-.28.36c-.81-.62-3.15-2.07-4.19-1.29a1.56,1.56,0,0,0-.78,1.23c0,.76.8,1.7,2.43,2.87l1.24.93c3.29,2.49,9.41,7.11,15.43,6.91a15.66,15.66,0,0,0,10.89-5.44v0a12.11,12.11,0,0,0,2.89-5.36.23.23,0,0,1,.28-.16.23.23,0,0,1,.16.28,12.6,12.6,0,0,1-3,5.55,16.05,16.05,0,0,1-11.22,5.61Z"/><path class="cls-3" d="M61.86,101.28c-3.09,0-5.6-2.72-5.63-2.75a.22.22,0,0,1-.06-.19s.31-2.3-1.27-2.93a2.17,2.17,0,0,0-2.53.5.23.23,0,0,1-.35-.29,2.64,2.64,0,0,1,3-.64c1.71.69,1.62,2.79,1.57,3.31a9.6,9.6,0,0,0,2.65,1.91,5.09,5.09,0,0,0,5.79-.59.22.22,0,0,1,.32,0,.23.23,0,0,1,0,.32A5.49,5.49,0,0,1,61.86,101.28Z"/><path class="cls-3" d="M36.72,110.53A7.63,7.63,0,0,1,31.77,109a.24.24,0,0,1,0-.33.23.23,0,0,1,.32,0c4.31,3.53,12.85-.31,16.32-2.13a.23.23,0,0,1,.22.41C46.11,108.22,41.07,110.53,36.72,110.53Z"/><path class="cls-3" d="M58.59,100.24h-.06a.23.23,0,0,1-.16-.28,2.2,2.2,0,0,0-.15-1.79,3.78,3.78,0,0,0-2.09-1.48A.22.22,0,0,1,56,96.4a.22.22,0,0,1,.28-.16,4.19,4.19,0,0,1,2.37,1.7,2.67,2.67,0,0,1,.19,2.14A.22.22,0,0,1,58.59,100.24Z"/></g></g></svg>