<svg xmlns="http://www.w3.org/2000/svg" viewBox="0 0 103.92 132.01"><defs><style>.cls-1{fill:#fff;}.cls-2{fill:#c4c3d5;}.cls-3{fill:#f7c0cb;}.cls-4{fill:#475e7f;opacity:0.3;}.cls-5{fill:#010101;}.cls-6{fill:#f198c0;}.cls-7{fill:#e874a1;}.cls-8{fill:#fad9e9;}.cls-9{fill:#129b39;}.cls-10{fill:#0c8637;}.cls-11{fill:#3fab35;}.cls-12{fill:#e7e8f5;}.cls-13{fill:#d0d0e2;}.cls-14{fill:#ffdc68;}.cls-15{fill:#eea723;}.cls-16{fill:#00405d;}.cls-17{fill:none;stroke:#b2b2b2;stroke-miterlimit:10;stroke-width:0.15px;}</style></defs><g id="Слой_2" data-name="Слой 2"><g id="Слой_1-2" data-name="Слой 1"><path class="cls-1" d="M103.27,41.33a4.39,4.39,0,0,0-.58-.78,4.15,4.15,0,0,0-.72-1.66,210.57,210.57,0,0,1-12.2-19c-1.4-2.57-2.6-5.21-3.68-7.59C83,5.6,80.42-.2,74.53.08c-1.37.07-5,.25-10.07,9.63a4,4,0,0,0-1.35-.19,7,7,0,0,0-.79-1.63,4.22,4.22,0,0,0-6.47-.66A12.57,12.57,0,0,0,55,5.71a4.21,4.21,0,0,0-7.62,1.61.53.53,0,0,1,0-.15,13.83,13.83,0,0,1-3.55,5.38,12.66,12.66,0,0,1-4.25,2.7C36.08,5.59,32,.69,27.34.69h-.29c-6.5.29-9.69,8.72-13.4,18.49-.93,2.47-1.9,5-2.91,7.39C7.64,33.9,4.08,38.25,3,39.33a4.07,4.07,0,0,0-.76,1A4.1,4.1,0,0,0,.72,41.75a4.18,4.18,0,0,0,.15,4.69l.29.41a4.16,4.16,0,0,0,.12,3.08,43.44,43.44,0,0,0,9.17,13.42c.3.3.61.58.92.87A15.77,15.77,0,0,0,13,71.71,15.15,15.15,0,0,0,10.39,80,14.32,14.32,0,0,0,14,89.27a20.24,20.24,0,0,0,.87,10.92,15.14,15.14,0,0,0,4.84,6.31c0,.59,0,1.19.07,1.79-3.37,1.4-8,4-9.93,8a9.1,9.1,0,0,0-.19,7.64c1.83,4.41,8.09,6.82,18.61,7.16a72.39,72.39,0,0,0,20-2.13c.4-.1.8-.21,1.19-.33a50.09,50.09,0,0,0,18.59,3.35A64.34,64.34,0,0,0,77,131.3c8.68-1.23,16.81-4.19,20.73-7.55,3.4-2.91,3.24-5.75,2.84-7.19a15.14,15.14,0,0,0-2.89-5.4,22.53,22.53,0,0,1-2.9-4.78,17.26,17.26,0,0,0,1.32-1.5,22.37,22.37,0,0,0,4.27-13.16c.13-6.33-1.88-12.89-5.67-17.13.39-.63.79-1.23,1.16-1.8,2.09-3.16,5.56-8.43.45-12.35a44.1,44.1,0,0,0,7-11.28,4.19,4.19,0,0,0-.06-3.53A4.2,4.2,0,0,0,103.27,41.33Z"/><path class="cls-2" d="M25.24,68.43s-5.65-1.33-11.82-8.06S5.13,48.24,5.13,48.24L7.9,49,4.29,44,8,44.64l-2.1-2.28S10.49,38,14.62,28.23C19,17.94,22.69,5,27.24,4.91s9.65,15.51,9.65,15.51,6-.91,10-4.93,4.65-7.41,4.65-7.41a8.1,8.1,0,0,1,1.31,4.25,21,21,0,0,1-.49,3.74s1.38.06,3.58-1.89a12.55,12.55,0,0,0,2.9-3.95,4.6,4.6,0,0,1,.51,3.19,5.18,5.18,0,0,1-1.17,2.77,8.1,8.1,0,0,0,2.75-1,11,11,0,0,0,2.29-1.51,5.55,5.55,0,0,1-.78,2.72A7.54,7.54,0,0,1,61,18.24L64.8,19S70.58,4.5,74.74,4.29c4.31-.21,6.41,8.58,11.33,17.63a211.11,211.11,0,0,0,12.5,19.46l-2.74,2.56,3.8-.5L96.1,48.08l3.33-.61s-3.37,8.21-9.77,13.8a36.11,36.11,0,0,1-12,7.25"/><path class="cls-1" d="M36.89,20.42,16.08,24.76S22.69,4.68,26.84,4.85C31.44,5,35,15,36.89,20.42Z"/><path class="cls-1" d="M64.8,19l22.32,5s-4.1-7.91-5.86-11.8-3.54-8.3-6.52-7.89C71.17,4.78,65.63,16,64.8,19Z"/><path class="cls-3" d="M16.4,24.79c1.67-4.65,3.15-8.63,4.41-12.2A19.65,19.65,0,0,1,25.5,5.5a1.51,1.51,0,0,1,.82-.5c2.38-.32,5.47,8.22,7.84,16"/><path class="cls-3" d="M67.92,19.81c.52-1.92,3.31-11.93,6.92-14.63a2,2,0,0,1,1-.44c2-.13,3.68,3.79,6.63,10,1,2.1,2.56,5.31,4.6,9.27"/><path class="cls-1" d="M9.43,55.4c1,.66,16.86,9.16,29.39,3.49A25.91,25.91,0,0,0,50.35,48.2a7.36,7.36,0,0,1,2.62-2,8,8,0,0,1,3.54-.67,7.17,7.17,0,0,1,3.94.75,6.13,6.13,0,0,1,1.82,1.63A26.64,26.64,0,0,0,77.81,59.44c10.73,2.83,15.55-3.3,17-4.19a36.08,36.08,0,0,1-7.57,8,37.7,37.7,0,0,1-9,5.09C67.82,72.65,57.75,72.9,53.28,73a85.75,85.75,0,0,1-24.57-3.19A33.27,33.27,0,0,1,9.43,55.4Z"/><path class="cls-4" d="M89.46,27.75a41,41,0,0,0,.9,10,39.6,39.6,0,0,0,1.69,5.72L88.8,47.1l2.93,0L88.5,50.55l3.11,0a50.29,50.29,0,0,1-9.44,8.76s-20.11,14.27-48.73,8.1c-1.52-.32-3.14-.74-3.14-.74a83.56,83.56,0,0,1-16.8-6.29,37.16,37.16,0,0,0,12,8.37,43.73,43.73,0,0,0,10.19,2.76,87.46,87.46,0,0,0,19,1.48,87,87,0,0,0,17.69-2.44A39.58,39.58,0,0,0,91.85,59.37a38.6,38.6,0,0,0,7.61-11.86L96.18,48l3.41-4.61-3.77.52,2.77-2.48c-1.43-1.89-2.87-3.89-4.32-6Q91.62,31.46,89.46,27.75Z"/><path class="cls-5" d="M35.76,71.73h0A42.9,42.9,0,0,1,26.15,69,39.19,39.19,0,0,1,4.94,48.32a.22.22,0,0,1,0-.22A.23.23,0,0,1,5.19,48l2.19.62L4.12,44.11a.21.21,0,0,1,0-.24.2.2,0,0,1,.21-.09l3.08.54L5.73,42.5a.21.21,0,0,1,0-.3c1.58-1.51,5.44-6.4,8.68-14.06,1-2.43,2-5,3-7.53,3.07-8.1,6-15.74,9.84-15.91h.11c4.73,0,9.13,13.67,9.69,15.49,1-.19,6.22-1.3,9.68-4.84,3.92-4,4.59-7.27,4.59-7.3a.21.21,0,0,1,.17-.17.2.2,0,0,1,.21.09A8.17,8.17,0,0,1,53,12.33a21.23,21.23,0,0,1-.43,3.5A6.84,6.84,0,0,0,55.77,14a12.55,12.55,0,0,0,2.85-3.88.19.19,0,0,1,.17-.12.2.2,0,0,1,.2.09,4.88,4.88,0,0,1,.54,3.34,6.3,6.3,0,0,1-.88,2.43,8.6,8.6,0,0,0,2.15-.82,11.5,11.5,0,0,0,2.25-1.49.22.22,0,0,1,.22,0,.21.21,0,0,1,.13.19,5.75,5.75,0,0,1-.81,2.84,10.22,10.22,0,0,1-1.16,1.55l3.24.66c.68-1.69,6-14.49,10-14.69,3.17-.16,5.08,4.06,7.74,9.91,1.09,2.4,2.32,5.12,3.79,7.83A213.52,213.52,0,0,0,98.74,41.25a.21.21,0,0,1,0,.28l-2.26,2.11,3.14-.41a.21.21,0,0,1,.21.1.23.23,0,0,1,0,.24l-3.2,4.2,2.8-.51a.23.23,0,0,1,.2.08.22.22,0,0,1,0,.22,39.9,39.9,0,0,1-27.51,23.2.21.21,0,0,1-.25-.16.2.2,0,0,1,.15-.25,39.4,39.4,0,0,0,27.06-22.6l-2.94.54a.23.23,0,0,1-.22-.1.23.23,0,0,1,0-.24l3.22-4.23-3.29.43a.22.22,0,0,1-.22-.12.21.21,0,0,1,0-.25l2.6-2.43A210.92,210.92,0,0,1,85.88,22c-1.48-2.72-2.72-5.45-3.81-7.86-2.48-5.47-4.45-9.8-7.32-9.66-4,.2-9.7,14.44-9.76,14.59a.22.22,0,0,1-.24.12L61,18.44a.2.2,0,0,1-.17-.15.21.21,0,0,1,.08-.22,7.73,7.73,0,0,0,1.37-1.73A5.17,5.17,0,0,0,63,14.2,16.55,16.55,0,0,1,61,15.43a8.16,8.16,0,0,1-2.84,1,.21.21,0,0,1-.21-.12A.21.21,0,0,1,58,16a5.06,5.06,0,0,0,1.11-2.66,4.73,4.73,0,0,0-.29-2.68,12.57,12.57,0,0,1-2.77,3.64c-2.23,2-3.67,1.94-3.73,1.94a.21.21,0,0,1-.16-.08.23.23,0,0,1,0-.18,21.74,21.74,0,0,0,.48-3.7,7.65,7.65,0,0,0-1-3.71,18.24,18.24,0,0,1-4.58,7c-3.94,4-10,5-10.09,5a.22.22,0,0,1-.24-.15c0-.15-4.7-15.37-9.34-15.37h-.09c-3.59.16-6.44,7.68-9.46,15.64-1,2.51-1.94,5.11-3,7.55-3.18,7.5-6.95,12.37-8.63,14.05l2,2.14a.2.2,0,0,1,0,.24.22.22,0,0,1-.22.11l-3.18-.57,3.31,4.61a.21.21,0,0,1,0,.25.23.23,0,0,1-.23.08l-2.34-.66a38.78,38.78,0,0,0,20.8,20.08,42.64,42.64,0,0,0,9.49,2.67.21.21,0,0,1,.17.24A.22.22,0,0,1,35.76,71.73Z"/><path class="cls-6" d="M56.54,53.26a4.87,4.87,0,0,1-4.75-4.43c0-1.88,2.62-1.9,4.59-2s4.66.31,4.59,2S59.27,53.28,56.54,53.26Z"/><path class="cls-5" d="M56.56,53.47h0A5,5,0,0,1,53,51.92a4.54,4.54,0,0,1-1.4-3.09c0-2,2.68-2.11,4.62-2.17h.17c1,0,3.32,0,4.34,1a1.53,1.53,0,0,1,.47,1.19C61.1,50.81,59.3,53.47,56.56,53.47Zm.26-6.41h-.61c-2.29.07-4.19.25-4.21,1.76a4.18,4.18,0,0,0,1.29,2.78,4.53,4.53,0,0,0,3.25,1.43h0a4,4,0,0,0,3-1.47,4.82,4.82,0,0,0,1.17-2.71,1.15,1.15,0,0,0-.35-.89A5.42,5.42,0,0,0,56.82,47.06Z"/><path class="cls-7" d="M52.83,49.87a7.81,7.81,0,0,0,3.21.49A20.14,20.14,0,0,0,59.52,50s-1.32,2.54-3.11,2.53S53.08,50.61,52.83,49.87Z"/><ellipse class="cls-8" cx="54.73" cy="48.42" rx="1.99" ry="0.91" transform="matrix(1, -0.01, 0.01, 1, -0.4, 0.46)"/><path class="cls-5" d="M56.25,56.82h-.08a.22.22,0,0,1-.12-.28,8.07,8.07,0,0,0,.46-2.93.22.22,0,0,1,.43,0,8.64,8.64,0,0,1-.5,3.1A.21.21,0,0,1,56.25,56.82Z"/><path class="cls-5" d="M57,57c-2,0-3.92-.21-4-.22a.21.21,0,1,1,0-.42,30.59,30.59,0,0,0,6.86,0,.21.21,0,0,1,.24.17.2.2,0,0,1-.16.25A16.79,16.79,0,0,1,57,57Z"/><path class="cls-5" d="M52.34,59.15a.15.15,0,0,1-.09,0,.2.2,0,0,1-.1-.27,5.5,5.5,0,0,0,.42-3.16,3.89,3.89,0,0,0-.41-1.24.21.21,0,0,1,.36-.22,5.36,5.36,0,0,1,0,4.79A.2.2,0,0,1,52.34,59.15Z"/><path class="cls-5" d="M60.7,59a.21.21,0,0,1-.18-.11,5.28,5.28,0,0,1,0-4.87.2.2,0,0,1,.28-.08.22.22,0,0,1,.09.29,4.93,4.93,0,0,0,0,4.45.21.21,0,0,1-.07.29A.23.23,0,0,1,60.7,59Z"/><path class="cls-9" d="M94.39,120.94C91.85,122.45,74,133,49.76,124.24A66.9,66.9,0,0,1,37,126.49c-9.43.7-25.23.85-23.78-7.06.89-4.87,11.4-8.56,11.4-8.56a24.32,24.32,0,0,1,0-10.55c1.3-5.62-3.82-10.91-7.18-13.65s-3.94-11,.64-14.4c-2.8-4.82-3.16-9.19-1.62-10.37a5,5,0,0,1,2.67-.84,5.12,5.12,0,0,1,2.11.42c2.63,1.1,5.42,1.81,8,3a39.44,39.44,0,0,0,10.42,3.23,30.89,30.89,0,0,0,7.81-.06c6.8-.64,9.87-2.39,14.56-.92a14.22,14.22,0,0,1,2.51,1.06c3.9-1.29,16.06-5.32,20.83-5.38h1c7.93.05,8.34,2,8.34,3.25,0,1.09-1.73,3.66-3.42,6.83v0h0c-2.56,4.8-5.65,11-5.08,15.57,1,7.61,2.43,18.75,7.48,24.81C98,118.06,96.93,119.43,94.39,120.94Z"/><path class="cls-10" d="M19.06,68.85c.26-1.8,7.61,4.31,18.92,5.34s18.64-2.12,19.6,0-9.39,7.88-18.71,7.68S18.72,71.24,19.06,68.85Z"/><path class="cls-10" d="M19.06,115.87c-1.3-.12,4.46-2.88,5.83-3.84s1.44-2.74,3.15-2.61S28.93,116.76,19.06,115.87Z"/><path class="cls-10" d="M85.34,85c.13-2.77-12.82-2.6-9.18,16.11,1.58,8.16,12.13,12.27,14.53,11S84.79,97,85.34,85Z"/><path class="cls-10" d="M59,115.93s3.77,12-1.85,10.59-7.74-2.16-7.74-2.16S57,121.28,59,115.93Z"/><path class="cls-10" d="M65.19,74.12c1.72-2.56,15.56-3.63,16.66-1.85S70.06,83.65,66.7,82,62.65,77.89,65.19,74.12Z"/><path class="cls-10" d="M40.72,115.93c-1.77-.7,4.11-2.05,7.61-7.74,5-8.11,3-11.38,5.07-11.24,1,.06,1.69,7.54-.34,12.47C50.91,114.64,43.67,117.1,40.72,115.93Z"/><path class="cls-11" d="M90.29,72.45c.17-.34,2.53-5.19.95-7.31s-9.63-2.23-9.63-2.23,1.63-.31,3.76-.54c7.93.05,8.06,2,8.06,3.25C93.43,66.71,92,69.28,90.29,72.45Z"/><path class="cls-5" d="M20.67,76a.23.23,0,0,1-.15-.07,24.37,24.37,0,0,1-3.08-4.19c-1.89-3.25-2.53-6.31-1.84-8.83a2.61,2.61,0,0,1,1.32-1.73c2-1,5.81.48,10.58,2.38,4.44,1.77,9.48,3.77,14.16,4.06a48.36,48.36,0,0,0,11.54-.83c4.38-.71,7.83-1.27,11.38.86a.21.21,0,0,1-.22.36c-3.41-2-6.8-1.5-11.09-.8A48.55,48.55,0,0,1,41.63,68c-4.74-.29-9.81-2.31-14.29-4.09S19,60.58,17.11,61.51A2.14,2.14,0,0,0,16,63c-1.59,5.85,4.75,12.55,4.82,12.62a.22.22,0,0,1,0,.3A.2.2,0,0,1,20.67,76Z"/><path class="cls-5" d="M26.22,114.05a.19.19,0,0,1-.14,0c-2.65-2.4-2.46-7-2.3-10.69,0-.32,0-.62,0-.92,0-.53.07-1,.12-1.59.32-3.27.65-6.64-5.68-12.78-2.56-2.49-3.87-5.2-3.87-8a12,12,0,0,1,3.35-7.88.21.21,0,0,1,.3,0,.2.2,0,0,1,0,.29A11.82,11.82,0,0,0,14.81,80c0,2.73,1.27,5.34,3.75,7.74,6.47,6.28,6.11,9.92,5.8,13.13-.05.54-.1,1-.12,1.56,0,.3,0,.61,0,.93-.15,3.6-.34,8.09,2.17,10.36a.22.22,0,0,1,0,.3A.23.23,0,0,1,26.22,114.05Z"/><path class="cls-5" d="M22.87,116.11a.2.2,0,0,1-.21-.18.21.21,0,0,1,.17-.24A8.67,8.67,0,0,0,28.51,112a.21.21,0,1,1,.36.22,9,9,0,0,1-6,3.94Z"/><path class="cls-5" d="M68.06,127.94a45,45,0,0,1-18.32-3.58l0,0c-.83.27-1.65.51-2.44.71a68.34,68.34,0,0,1-18.87,2c-8.31-.27-13.93-2-15-4.69a5.11,5.11,0,0,1,.09-4.36c2.24-4.61,10.64-7,11-7.12a.21.21,0,0,1,.12.4A31.72,31.72,0,0,0,20,113.06c-2.19,1.06-5,2.81-6.16,5.12a4.72,4.72,0,0,0-.08,4c1,2.48,6.65,4.18,14.66,4.44a68.2,68.2,0,0,0,18.75-2c4.47-1.18,10.18-3.39,12.06-7.2,2.27-4.6,1.57-7.43.5-11.72C58.28,100,56.31,92,60,74.53a10.91,10.91,0,0,1,7-8.11,89.44,89.44,0,0,1,13.7-3.71c6.41-1.13,10.82-.84,13.1.86s.82,3.8-1.3,7C89.41,75.26,84.75,82.32,87,93.93c2.59,13.22,5.39,16.93,7.43,19.64a11.22,11.22,0,0,1,2.23,4.06c.26.91-.29,2-1.58,3.08-3.33,2.86-10.84,5.52-18.69,6.63A59.8,59.8,0,0,1,68.06,127.94Zm-17.77-3.8c7.23,3.15,16.46,4.14,26.06,2.78,9-1.27,15.75-4.19,18.48-6.53.8-.69,1.71-1.71,1.45-2.65a10.84,10.84,0,0,0-2.17-3.91c-2.06-2.75-4.89-6.5-7.5-19.82C84.3,82.23,89,75.08,92.14,70.36c2.24-3.39,3.24-5.08,1.4-6.45C91.39,62.3,87,62,80.77,63.12a89,89,0,0,0-13.62,3.7,10.46,10.46,0,0,0-6.79,7.78c-3.62,17.44-1.67,25.29-.24,31,1.05,4.22,1.81,7.27-.53,12C58.05,120.75,54.11,122.82,50.29,124.14Z"/><path class="cls-12" d="M68.69,76.9v14c0,.83-3.39,1.51-7.56,1.51s-7.56-.68-7.56-1.51v-14C55.66,75.63,67.45,76,68.69,76.9Z"/><path class="cls-5" d="M61.13,77.86c-2,0-3.93-.08-5.37-.22-2.21-.23-2.4-.5-2.4-.76s.19-.53,2.4-.75c1.44-.15,3.34-.23,5.37-.23s3.93.08,5.36.23c2.22.22,2.41.49,2.41.75s-.19.53-2.41.76C65.06,77.78,63.16,77.86,61.13,77.86Zm-7.25-1c.62.26,3.22.56,7.25.56s6.63-.3,7.25-.56a30.37,30.37,0,0,0-7.25-.56A30.37,30.37,0,0,0,53.88,76.88ZM68.5,77Z"/><path class="cls-5" d="M61.13,92.6c-3.12,0-7.77-.46-7.77-1.72v-14a.21.21,0,0,1,.21-.21.21.21,0,0,1,.21.21v14c0,.53,2.87,1.3,7.35,1.3s7.35-.77,7.35-1.3v-14a.21.21,0,0,1,.21-.21.21.21,0,0,1,.21.21v14C68.9,92.14,64.25,92.6,61.13,92.6Z"/><path class="cls-9" d="M56.66,84.33a5,5,0,1,1,4.93,5.08,5,5,0,0,1-4.93-5.08"/><ellipse class="cls-13" cx="61.15" cy="77.23" rx="7.18" ry="0.7"/><path class="cls-1" d="M61.15,78.14c-1.92,0-3.73-.07-5.09-.21-2.12-.2-2.29-.46-2.29-.7s.17-.51,2.29-.71c1.36-.14,3.17-.21,5.09-.21s3.74.07,5.1.21c2.11.2,2.29.46,2.29.71C68.54,77.71,68,78.14,61.15,78.14Zm-6.83-.91a31.81,31.81,0,0,0,6.83.49c5.25,0,6.61-.27,6.91-.46-.52-.24-3-.53-6.91-.53A30.82,30.82,0,0,0,54.32,77.23Zm13.83.07Z"/><path class="cls-1" d="M65.31,84.36a4.74,4.74,0,0,0,0-.65l-.79.57v.07a2.79,2.79,0,1,1-2.75-2.82,2.83,2.83,0,0,1,1.57.51l.71-.51a3.62,3.62,0,1,0,1.31,2.83Z"/><path class="cls-1" d="M64.58,82.14a3.3,3.3,0,0,1,.42.73l-3.32,2.38-1.37-.88v-1l1.37.89Z"/><path class="cls-2" d="M47.5,92.86a14.32,14.32,0,0,1-3.23,1,14.93,14.93,0,0,1-2.66.23s-1.71-3.56-.34-9.94a6.81,6.81,0,0,0,2,.29A6.71,6.71,0,0,0,45.53,84C46.19,87,46.85,89.9,47.5,92.86Z"/><path class="cls-1" d="M54.12,87.23a9.61,9.61,0,0,1-3.38,4.36,9.42,9.42,0,0,1-3.66,1.55,26.2,26.2,0,0,1-1-2.81A28.28,28.28,0,0,1,45,84a6.28,6.28,0,0,1,.58-.27,5.91,5.91,0,0,1,1.76-.42l.57-.7a13.59,13.59,0,0,1,1.69-3.52c.89-1.33,1.41-1.59,1.82-1.69a2.17,2.17,0,0,1,1.83.42A2.31,2.31,0,0,1,54,80.19a1.71,1.71,0,0,1,.28,1.13,1.66,1.66,0,0,1-.71,1.15,1.62,1.62,0,0,1,1.13.4C55.47,83.6,55.34,85.41,54.12,87.23Z"/><path class="cls-5" d="M41.38,84.7a.22.22,0,0,1-.21-.2.21.21,0,0,1,.2-.22,23.59,23.59,0,0,0,3.35-.42,26,26,0,0,0,2.59-.68c.66-.87,2.79-3.44,4.73-3.83a2.12,2.12,0,0,1,1.55.17A1.9,1.9,0,0,1,54.48,81a2,2,0,0,1-.4,1.33.22.22,0,0,1-.3,0,.21.21,0,0,1,0-.29,1.67,1.67,0,0,0,.32-1.06,1.51,1.51,0,0,0-.68-1.17,1.74,1.74,0,0,0-1.26-.11c-1.88.38-4.09,3.16-4.52,3.72a.18.18,0,0,1-.1.07,23.66,23.66,0,0,1-6.11,1.14Z"/><path class="cls-5" d="M42.11,94.11h-.43a.21.21,0,0,1,0-.42h0c2.18,0,7.56-.23,10.65-4a14.42,14.42,0,0,0,2.09-3.59c.55-1.44.61-2.51.16-3a1.19,1.19,0,0,0-.6-.36c-1.12-.3-2.69.94-4,3.14a.21.21,0,0,1-.29.07.21.21,0,0,1-.08-.28c1.42-2.41,3.13-3.69,4.46-3.34a1.64,1.64,0,0,1,.81.49c1.31,1.51-.85,5.48-2.25,7.17C49.65,93.63,44.56,94.11,42.11,94.11Z"/><path class="cls-5" d="M48,82.87h-.07a.21.21,0,0,1-.13-.27c1.08-3.45,2.77-5.6,4.29-5.49A2.37,2.37,0,0,1,53.8,78a2.52,2.52,0,0,1,.31,2,.21.21,0,0,1-.26.15.22.22,0,0,1-.15-.26,2,2,0,0,0-.25-1.65,2,2,0,0,0-1.39-.76c-1.28-.09-2.87,2-3.86,5.2A.21.21,0,0,1,48,82.87Z"/><path class="cls-9" d="M40.17,95.51s-2.33,12.95-13,10.07S16.53,92.36,19.4,85.5a17.33,17.33,0,0,1,4.17-5.91c3.36-3.11,7.6-4.64,10.64-3.82,4.58,1.23,6.77,3,6,6.48v0h0s2.4.07,2.4,1v.82S41,82.59,41.06,87.56c0,4,.21,7.55,1.51,6.73C42.57,94.29,42.64,95.51,40.17,95.51Z"/><path class="cls-10" d="M18,91s5.69,10.29,12.34,10.49,1.51-6.85,1.51-6.85V90s4.86,2.53,9.31,1L42,95.65s.62,10.83-10.69,10.55S17.35,98.11,18,91Z"/><path class="cls-11" d="M40.18,82.25v0h0C35.76,74,24.74,79,23.57,79.59c3.36-3.11,7.6-4.64,10.64-3.82C38.79,77,41,78.77,40.18,82.25Z"/><path class="cls-5" d="M39.93,82.46l-.09,0a.22.22,0,0,1-.1-.28,3.55,3.55,0,0,0-.09-2.75C39,78,37.35,77,34.81,76.28c-6.69-1.75-12.24,4.36-12.56,5a.22.22,0,0,1-.21.16.22.22,0,0,1-.21-.21,9.64,9.64,0,0,1,2.61-2.67c2-1.51,5.93-3.87,10.47-2.68,2.68.7,4.4,1.84,5.12,3.37a3.85,3.85,0,0,1,.09,3.09A.21.21,0,0,1,39.93,82.46ZM22.25,81.22Z"/><path class="cls-5" d="M32.05,98a.2.2,0,0,1-.2-.16A17,17,0,0,1,33.3,85.34a20.15,20.15,0,0,1,3.54-5,.21.21,0,0,1,.3,0,.2.2,0,0,1,0,.29,20.15,20.15,0,0,0-3.46,4.86,16.66,16.66,0,0,0-1.42,12.14.2.2,0,0,1-.14.26Z"/><path class="cls-5" d="M30.12,106.22a12.77,12.77,0,0,1-4.87-1.09,11.77,11.77,0,0,1-6.68-6.44c-2.42-6,.58-13.17.61-13.24a.21.21,0,0,1,.27-.11.21.21,0,0,1,.11.28c0,.07-3,7.09-.6,12.91a11.33,11.33,0,0,0,6.46,6.21c3.24,1.36,6.1,1.41,8.49.13,4.7-2.52,6.08-9.37,6.09-9.44a.21.21,0,0,1,.25-.16.2.2,0,0,1,.16.24,18.46,18.46,0,0,1-1.29,3.87,12.41,12.41,0,0,1-5,5.86A8.32,8.32,0,0,1,30.12,106.22Z"/><path class="cls-5" d="M42.54,84.24h0a.22.22,0,0,1-.17-.25,1.05,1.05,0,0,0-.75-1.2,34.91,34.91,0,0,0-6.32,0,.22.22,0,0,1-.23-.2.21.21,0,0,1,.2-.22c.22,0,5.36-.35,6.48,0a1.46,1.46,0,0,1,1,1.68A.21.21,0,0,1,42.54,84.24Z"/><path class="cls-5" d="M40.4,95.68h-.21c-2.76-.07-8.55-2-8.8-2.08a.21.21,0,0,1,.14-.4c.06,0,6,2,8.67,2.06,1.31,0,1.82-.26,2-.52a.63.63,0,0,0,.12-.51.2.2,0,0,1,.14-.26.21.21,0,0,1,.26.14,1,1,0,0,1-.19.88A2.62,2.62,0,0,1,40.4,95.68Z"/><path class="cls-5" d="M41.65,94.66a.21.21,0,0,1-.21-.18c-1.37-7.58,0-10.68,0-10.81a.21.21,0,0,1,.28-.11.21.21,0,0,1,.11.28s-1.32,3.15,0,10.57a.2.2,0,0,1-.17.24Z"/><path class="cls-9" d="M96.05,93.78c-.82,7-5,13.28-13.62,13.28-19.77,0-16.11-32,1.41-32.9h.36c.34,0,.69,0,1,0a8.81,8.81,0,0,1,1.27.15C93.19,75.68,97,85.31,96.05,93.78Z"/><path class="cls-10" d="M83.41,90.78s-.66,3.6-7.14,2.52l-2-.19S76.33,102,80,102,83.56,98,83.41,90.78Z"/><path class="cls-11" d="M95.09,93.78C93.37,77,83.89,74.39,82.88,74.16l-.09,0h.45a20.61,20.61,0,0,1,2.31.16C92.23,75.68,96.07,85.31,95.09,93.78Z"/><path class="cls-5" d="M82.36,107.27c-6.61,0-9.93-3.46-11.55-6.36-3.06-5.48-2.6-13.53,1.13-19.56,3.09-5,7.8-7.64,13.24-7.4,7.12.31,11.34,9.42,11.16,17.69a18.35,18.35,0,0,1-3.43,10.79A12.83,12.83,0,0,1,82.36,107.27ZM84.5,74.35c-5,0-9.32,2.55-12.2,7.22a21.27,21.27,0,0,0-3,9.69,17,17,0,0,0,1.91,9.44c1.56,2.81,4.77,6.15,11.18,6.15a12.41,12.41,0,0,0,10.22-4.68,17.91,17.91,0,0,0,3.33-10.54c.18-8.07-3.88-17-10.75-17.26h0Z"/><path class="cls-5" d="M82.7,100.07h0a.21.21,0,0,1-.16-.25c.89-4.26,1.4-10.43-1.22-15.64a12,12,0,0,0-3.56-4.43.21.21,0,0,1-.06-.29A.2.2,0,0,1,78,79.4,12,12,0,0,1,81.64,84c2.69,5.32,2.18,11.6,1.27,15.93A.21.21,0,0,1,82.7,100.07Z"/><path class="cls-5" d="M79.44,98c-1.31,0-2.5-2-3.19-5.27-.92-4.39-.62-9.62,1.44-10.43l.37-.15a5.12,5.12,0,0,1,1.86-.44.22.22,0,0,1,.23.2.21.21,0,0,1-.19.22,4.61,4.61,0,0,0-1.73.41l-.39.16c-.83.32-1.39,1.62-1.59,3.65a22.42,22.42,0,0,0,.41,6.29c.63,3,1.72,4.94,2.78,4.94h0a26,26,0,0,0,3.47-.34.21.21,0,0,1,.24.17.22.22,0,0,1-.18.25,26.42,26.42,0,0,1-3.51.34Z"/><path class="cls-5" d="M79.23,96a.18.18,0,0,1-.13,0,.21.21,0,0,1,0-.29,6.59,6.59,0,0,0,.82-1.23,7.84,7.84,0,0,0,.68-4.64,9.42,9.42,0,0,0-2.48-5.25.21.21,0,0,1,0-.3.21.21,0,0,1,.29,0A9.94,9.94,0,0,1,81,89.69a8.16,8.16,0,0,1-.72,4.88,7.64,7.64,0,0,1-.87,1.31A.23.23,0,0,1,79.23,96Z"/><path class="cls-2" d="M80.43,93.14a10.77,10.77,0,0,1-6.05.28A10,10,0,0,1,73.11,93l1-8.16,4.22-.14a9.73,9.73,0,0,1,2.11,8.44Z"/><path class="cls-1" d="M73.54,93.14a5.78,5.78,0,0,1-2.68-1.69,6,6,0,0,1-1.49-4,10.46,10.46,0,0,1-.62-5,10.32,10.32,0,0,1,.42-1.83,2.45,2.45,0,0,1-.28-2.11A1.83,1.83,0,0,1,70,77.38a1.88,1.88,0,0,1,1.55.42c.62.49.83,1.23,1.23,2.7.15.57.25,1,.31,1.38A13.1,13.1,0,0,0,73.82,84l.27.58a2.09,2.09,0,0,1-.06.25c.42.94,1.85,4.43.21,7.33A5.46,5.46,0,0,1,73.54,93.14Z"/><path class="cls-5" d="M76.8,93.86c-2.71,0-5-.86-6.31-2.49-1-1.24-1.23-2.61-1.63-5.11-.64-3.91-.35-6.18.86-6.75a1.74,1.74,0,0,1,1.1-.08c1.59.32,2.87,2.28,3.36,5.13l4.34-.14a.21.21,0,0,1,.22.2.21.21,0,0,1-.2.22L74,85a.21.21,0,0,1-.22-.18c-.43-2.73-1.63-4.68-3.05-5a1.3,1.3,0,0,0-.84,0c-.57.27-1.42,1.45-.63,6.3.4,2.43.61,3.76,1.55,4.92,1.81,2.25,5.7,2.94,9.89,1.76A.22.22,0,0,1,81,93a.22.22,0,0,1-.15.26A15,15,0,0,1,76.8,93.86Z"/><path class="cls-5" d="M73,81.88a.22.22,0,0,1-.21-.18c-.26-2.34-1.15-4-2.21-4.18a1.33,1.33,0,0,0-1,.24,2.41,2.41,0,0,0-.35,2.71.22.22,0,0,1-.12.27.22.22,0,0,1-.28-.12,2.8,2.8,0,0,1,.5-3.2,1.73,1.73,0,0,1,1.28-.32c1.27.19,2.28,2,2.57,4.55a.2.2,0,0,1-.18.23Z"/><path class="cls-14" d="M48.28,45a9.34,9.34,0,1,1-8.1-10.44A9.35,9.35,0,0,1,48.28,45"/><path class="cls-15" d="M37.49,52.59A9.34,9.34,0,0,0,39.2,34.44a9.34,9.34,0,1,1-3.28,18.22,9.22,9.22,0,0,0,1.57-.07"/><path class="cls-5" d="M33.08,43.36A7.32,7.32,0,1,0,40.34,36a7.33,7.33,0,0,0-7.26,7.39"/><path class="cls-1" d="M34.67,42.07a2.72,2.72,0,1,0,2.7-2.74,2.72,2.72,0,0,0-2.7,2.74"/><path class="cls-16" d="M44,38s1.15,4.22-1.11,7.29A10.28,10.28,0,0,1,37,48.9s5.82,2.44,8.5-1.43C49.3,42,44,38,44,38"/><path class="cls-1" d="M43.1,45.55a.94.94,0,0,0,.95.93.94.94,0,1,0,0-1.88.94.94,0,0,0-.93.95"/><path class="cls-14" d="M79.42,43.72A8.72,8.72,0,1,1,71.84,34a8.73,8.73,0,0,1,7.58,9.73"/><path class="cls-15" d="M69.62,50.81a8.72,8.72,0,0,0,1.6-16.94,8.72,8.72,0,0,1,.72,17.36,8.86,8.86,0,0,1-3.78-.36,9,9,0,0,0,1.46-.06"/><path class="cls-5" d="M63.42,42.33a6.73,6.73,0,1,0,6.67-6.78,6.72,6.72,0,0,0-6.67,6.78"/><path class="cls-1" d="M64.89,41.14a2.49,2.49,0,1,0,2.47-2.51,2.49,2.49,0,0,0-2.47,2.51"/><path class="cls-16" d="M73.47,37.39s1,3.88-1,6.69A9.4,9.4,0,0,1,67,47.41s5.34,2.25,7.8-1.31c3.47-5-1.37-8.71-1.37-8.71"/><path class="cls-1" d="M72.49,44a.72.72,0,1,0,.71-.73.71.71,0,0,0-.71.73"/><path class="cls-5" d="M39,53.38a10.1,10.1,0,0,1-1.22-.07,9.66,9.66,0,1,1,1.22.07ZM39,34.7A9.13,9.13,0,1,0,48.07,45l.21,0-.21,0A9.12,9.12,0,0,0,39,34.7Z"/><path class="cls-5" d="M70.79,51.57a8.72,8.72,0,0,1-1.14-.07,8.92,8.92,0,1,1,10-7.74l-.21,0,.21,0a9,9,0,0,1-8.84,7.81Zm0-17.43a8.39,8.39,0,1,0,1.08.06A9.77,9.77,0,0,0,70.75,34.14Z"/><path class="cls-5" d="M75.89,29.38a.19.19,0,0,1-.14-.05A15,15,0,0,0,65.24,26.5a.22.22,0,0,1-.24-.18.21.21,0,0,1,.17-.24A15.51,15.51,0,0,1,76,29a.21.21,0,0,1,0,.3A.2.2,0,0,1,75.89,29.38Z"/><path class="cls-5" d="M30.7,29.38a.21.21,0,0,1-.17-.08.22.22,0,0,1,0-.3,15.84,15.84,0,0,1,10.36-2.75.21.21,0,0,1,.18.24.22.22,0,0,1-.24.18,15.34,15.34,0,0,0-10,2.67A.17.17,0,0,1,30.7,29.38Z"/></g><g id="Cut"><path class="cls-17" d="M103.27,41.33a4.39,4.39,0,0,0-.58-.78,4.15,4.15,0,0,0-.72-1.66,210.57,210.57,0,0,1-12.2-19c-1.4-2.57-2.6-5.21-3.68-7.59C83,5.6,80.42-.2,74.53.08c-1.37.07-5,.25-10.07,9.63a4,4,0,0,0-1.35-.19,7,7,0,0,0-.79-1.63,4.22,4.22,0,0,0-6.47-.66A12.57,12.57,0,0,0,55,5.71a4.21,4.21,0,0,0-7.62,1.61.53.53,0,0,1,0-.15,13.83,13.83,0,0,1-3.55,5.38,12.66,12.66,0,0,1-4.25,2.7C36.08,5.59,32,.69,27.34.69h-.29c-6.5.29-9.69,8.72-13.4,18.49-.93,2.47-1.9,5-2.91,7.39C7.64,33.9,4.08,38.25,3,39.33a4.07,4.07,0,0,0-.76,1A4.1,4.1,0,0,0,.72,41.75a4.18,4.18,0,0,0,.15,4.69l.29.41a4.16,4.16,0,0,0,.12,3.08,43.44,43.44,0,0,0,9.17,13.42c.3.3.61.58.92.87A15.77,15.77,0,0,0,13,71.71,15.15,15.15,0,0,0,10.39,80,14.32,14.32,0,0,0,14,89.27a20.24,20.24,0,0,0,.87,10.92,15.14,15.14,0,0,0,4.84,6.31c0,.59,0,1.19.07,1.79-3.37,1.4-8,4-9.93,8a9.1,9.1,0,0,0-.19,7.64c1.83,4.41,8.09,6.82,18.61,7.16a72.39,72.39,0,0,0,20-2.13c.4-.1.8-.21,1.19-.33a50.09,50.09,0,0,0,18.59,3.35A64.34,64.34,0,0,0,77,131.3c8.68-1.23,16.81-4.19,20.73-7.55,3.4-2.91,3.24-5.75,2.84-7.19a15.14,15.14,0,0,0-2.89-5.4,22.53,22.53,0,0,1-2.9-4.78,17.26,17.26,0,0,0,1.32-1.5,22.37,22.37,0,0,0,4.27-13.16c.13-6.33-1.88-12.89-5.67-17.13.39-.63.79-1.23,1.16-1.8,2.09-3.16,5.56-8.43.45-12.35a44.1,44.1,0,0,0,7-11.28,4.19,4.19,0,0,0-.06-3.53A4.2,4.2,0,0,0,103.27,41.33Z"/></g></g></svg>