<svg xmlns="http://www.w3.org/2000/svg" viewBox="0 0 108.19 91.5"><defs><style>.cls-1{fill:#c6c4d6;}.cls-2{fill:#010101;}.cls-3{fill:#c4c3d5;}.cls-4{fill:#fff;}.cls-5{fill:#f7c0cb;}.cls-6{fill:#475e7f;opacity:0.3;}.cls-7{fill:#f198c0;}.cls-8{fill:#e874a1;}.cls-9{fill:#fad9e9;}.cls-10{fill:#ffdf68;}.cls-11{fill:#eea723;}.cls-12{fill:#1d435d;}.cls-13{fill:#23a038;}.cls-14{fill:#1d7833;opacity:0.9;}</style></defs><g id="Слой_2" data-name="Слой 2"><g id="Слой_1-2" data-name="Слой 1"><path id="тело_цвет" data-name="тело цвет" class="cls-1" d="M56.15,91.47a105.72,105.72,0,0,0,30-5.06C85.4,84,84.69,81.81,84,79.78A13.55,13.55,0,0,0,82.18,76a11.81,11.81,0,0,0-1.72-1.93,117.84,117.84,0,0,1-42.21,2.32c-3-.38-5.78-.86-8.49-1.42a14.68,14.68,0,0,0-.94,1.2,17.11,17.11,0,0,0-2.33,5.59c-.44,1.57-.93,3.53-1.38,5.82A105.91,105.91,0,0,0,56.15,91.47Z"/><path class="cls-2" d="M25.11,87.79h0a.23.23,0,0,1-.19-.27A56.13,56.13,0,0,1,26.11,82a19,19,0,0,1,2.2-5.55,13.79,13.79,0,0,1,1.28-1.68.23.23,0,0,1,.33,0,.25.25,0,0,1,0,.33,13.92,13.92,0,0,0-1.23,1.63,18.17,18.17,0,0,0-2.15,5.42c-.49,1.78-.9,3.61-1.22,5.45A.24.24,0,0,1,25.11,87.79Z"/><path class="cls-2" d="M86,86.65a.22.22,0,0,1-.22-.18,65,65,0,0,0-2.1-7,13,13,0,0,0-2.11-3.95,12.5,12.5,0,0,0-1.23-1.29.23.23,0,0,1,.32-.34,12,12,0,0,1,3.46,5.42,64.34,64.34,0,0,1,2.11,7.06.24.24,0,0,1-.17.29Z"/><path class="cls-2" d="M32.77,89.5h0a.24.24,0,0,1-.22-.26l.34-3.92a.24.24,0,0,1,.26-.22.24.24,0,0,1,.21.26L33,89.28A.23.23,0,0,1,32.77,89.5Z"/><path class="cls-2" d="M77.87,89a.24.24,0,0,1-.23-.18l-1-3.66a.24.24,0,0,1,.16-.29.22.22,0,0,1,.29.16l1,3.67a.24.24,0,0,1-.17.29Z"/><path class="cls-3" d="M23.85,72.58s-6.39-1.51-13.34-9.14S1.18,49.72,1.18,49.72l3.13.88L.23,44.91l4.17.75L2,43.08s5.22-5,9.91-15.95C16.91,15.52,21.13.92,26.27.82S37.12,18.37,37.12,18.37s6.83-1,11.28-5.55,5.28-8.36,5.28-8.36a9,9,0,0,1,1.46,4.8,23.59,23.59,0,0,1-.55,4.23s1.56.07,4-2.12A14.21,14.21,0,0,0,61.92,6.9a5.27,5.27,0,0,1,.57,3.61,5.91,5.91,0,0,1-1.33,3.13,9.14,9.14,0,0,0,3.11-1.06,12.84,12.84,0,0,0,2.59-1.71A6.41,6.41,0,0,1,66,14a8.54,8.54,0,0,1-1.61,2l4.3.88S75.23.46,79.93.24C84.8,0,87.15,9.94,92.69,20.18a238.65,238.65,0,0,0,14.08,22l-3.11,2.88,4.29-.55-4,5.24,3.77-.68s-3.84,9.26-11.08,15.56-13.6,8.16-13.6,8.16"/><path class="cls-4" d="M37.12,18.37,13.61,23.22S21.12.55,25.81.75C31,1,35,12.27,37.12,18.37Z"/><path class="cls-4" d="M68.66,16.84l25.22,5.68s-4.62-8.95-6.6-13.36S83.3-.22,79.93.24C75.9.79,69.61,13.45,68.66,16.84Z"/><path class="cls-5" d="M14,23.25c1.9-5.24,3.58-9.73,5-13.77a22.48,22.48,0,0,1,5.32-8,1.75,1.75,0,0,1,.92-.56C27.91.56,31.39,10.22,34,19"/><path class="cls-5" d="M72.19,17.76c.6-2.17,3.76-13.48,7.86-16.51a2.13,2.13,0,0,1,1.18-.5C83.55.6,85.38,5,88.69,12c1.13,2.37,2.89,6,5.19,10.49"/><path class="cls-4" d="M6,57.82c1.16.75,12,10.92,26.14,4.54a29.06,29.06,0,0,0,13.06-12,8.43,8.43,0,0,1,3-2.28,9.09,9.09,0,0,1,4-.75,8.06,8.06,0,0,1,4.45.86,9,9,0,0,1,2,1.84c.87.91,2.14,2.2,3.76,3.77a6,6,0,0,1,6.46,5.14,23.53,23.53,0,0,0,7.31,4.2c12.5,4.36,24.45-4,26.21-5.23a40.9,40.9,0,0,1-8.56,9,42.79,42.79,0,0,1-10.19,5.74c-11.74,4.83-23.12,5.09-28.16,5.17a97,97,0,0,1-27.76-3.68A37.58,37.58,0,0,1,6,57.82Z"/><path class="cls-6" d="M96.5,26.78a46.24,46.24,0,0,0,2.89,17.77l-3.68,4.09L99,48.7l-3.66,3.83,3.52,0a57.11,57.11,0,0,1-10.69,9.88s-22.75,16.07-55.08,9c-1.72-.37-3.54-.85-3.54-.85a94.92,94.92,0,0,1-19-7.14,41.93,41.93,0,0,0,13.56,9.48C28,74.58,31,75.17,35.69,76.05a98.93,98.93,0,0,0,21.49,1.72,98.46,98.46,0,0,0,20-2.71,44.71,44.71,0,0,0,22-12.55,43.39,43.39,0,0,0,8.62-13.39l-3.7.58,3.86-5.21-4.26.59,3.13-2.8c-1.6-2.13-3.23-4.41-4.85-6.82C99.92,32.47,98.12,29.57,96.5,26.78Z"/><path class="cls-2" d="M35.73,76.33h0a48.45,48.45,0,0,1-10.82-3.08A44.33,44.33,0,0,1,1,49.81a.25.25,0,0,1,0-.25.24.24,0,0,1,.24-.07l2.49.71L0,45.05a.26.26,0,0,1,0-.27.22.22,0,0,1,.24-.1l3.48.63L1.87,43.23a.22.22,0,0,1,0-.32C3.67,41.2,8,35.68,11.73,27c1.18-2.75,2.29-5.68,3.37-8.51C18.59,9.4,21.88.77,26.26.58,31.64.35,36.65,16,37.29,18.1c1.15-.21,7-1.45,11-5.44,4.44-4.52,5.2-8.21,5.21-8.25a.24.24,0,0,1,.18-.18.23.23,0,0,1,.24.1,9.19,9.19,0,0,1,1.51,4.94,25.84,25.84,0,0,1-.49,4,7.84,7.84,0,0,0,3.59-2,14,14,0,0,0,3.23-4.38.23.23,0,0,1,.19-.14.23.23,0,0,1,.22.1,5.49,5.49,0,0,1,.6,3.78,7.32,7.32,0,0,1-1,2.75,9.44,9.44,0,0,0,2.44-.93A13.11,13.11,0,0,0,66.7,10.7a.26.26,0,0,1,.25,0,.24.24,0,0,1,.15.22,6.53,6.53,0,0,1-.93,3.2,10.58,10.58,0,0,1-1.32,1.75l3.67.75C69.29,14.68,75.34.22,79.92,0c3.58-.16,5.72,4.61,8.7,11.21,1.23,2.72,2.62,5.8,4.28,8.86a237.14,237.14,0,0,0,14.06,22,.24.24,0,0,1,0,.31l-2.57,2.39,3.56-.46a.24.24,0,0,1,.24.12.25.25,0,0,1,0,.26l-3.63,4.75,3.17-.57a.22.22,0,0,1,.23.08.23.23,0,0,1,0,.24A45,45,0,0,1,76.81,75.32a.23.23,0,0,1-.11-.45A44.61,44.61,0,0,0,107.34,49.4L104,50a.25.25,0,0,1-.24-.11.24.24,0,0,1,0-.27l3.66-4.78-3.74.48a.24.24,0,0,1-.24-.14.25.25,0,0,1,0-.27l3-2.74a239.87,239.87,0,0,1-14-21.88c-1.66-3.08-3.06-6.16-4.28-8.88C85.4,5.21,83.19.32,79.94.47c-4.49.21-11,16.3-11.06,16.46a.24.24,0,0,1-.27.14l-4.29-.88a.27.27,0,0,1-.19-.17.23.23,0,0,1,.09-.24,9.35,9.35,0,0,0,1.56-2,6.11,6.11,0,0,0,.81-2.42,18.76,18.76,0,0,1-2.2,1.39,9.57,9.57,0,0,1-3.21,1.09.24.24,0,0,1-.23-.14.22.22,0,0,1,0-.27,5.75,5.75,0,0,0,1.25-3,5.27,5.27,0,0,0-.32-3,14.31,14.31,0,0,1-3.14,4.11c-2.53,2.23-4.14,2.19-4.21,2.19a.22.22,0,0,1-.18-.1.21.21,0,0,1,0-.19,24.05,24.05,0,0,0,.55-4.19,8.35,8.35,0,0,0-1.15-4.19A20.48,20.48,0,0,1,48.57,13c-4.46,4.53-11.34,5.6-11.41,5.61a.23.23,0,0,1-.26-.17c0-.17-5.28-17.38-10.52-17.38h-.1C22.21,1.22,19,9.71,15.54,18.7c-1.08,2.84-2.2,5.77-3.38,8.52-3.61,8.47-7.88,14-9.79,15.86L4.58,45.5a.25.25,0,0,1,0,.27.23.23,0,0,1-.25.12l-3.6-.65L4.5,50.47a.23.23,0,0,1,0,.27.24.24,0,0,1-.26.09L1.6,50.08A43.89,43.89,0,0,0,25.05,72.82a47.91,47.91,0,0,0,10.72,3,.24.24,0,0,1,.19.27A.23.23,0,0,1,35.73,76.33Z"/><path class="cls-7" d="M52.2,56.05a5.5,5.5,0,0,1-5.35-5c0-2.13,3-2.15,5.19-2.22s5.26.36,5.18,2.28S55.29,56.08,52.2,56.05Z"/><path class="cls-2" d="M52.24,56.29h0a5.64,5.64,0,0,1-4-1.77A5.1,5.1,0,0,1,46.61,51c0-2.28,3-2.37,5.22-2.44H52c1.09,0,3.75,0,4.9,1.19a1.71,1.71,0,0,1,.52,1.35C57.36,53.28,55.33,56.29,52.24,56.29Zm0-.47a4.47,4.47,0,0,0,3.46-1.66A5.42,5.42,0,0,0,57,51.09a1.28,1.28,0,0,0-.38-1c-.71-.72-2.41-1.11-4.55-1.05h-.2c-2.59.08-4.74.28-4.77,2a4.69,4.69,0,0,0,1.45,3.15,5.16,5.16,0,0,0,3.67,1.63Z"/><path class="cls-8" d="M48,52.2a8.56,8.56,0,0,0,3.63.57,21.68,21.68,0,0,0,3.92-.41s-1.49,2.87-3.52,2.85S48.3,53.05,48,52.2Z"/><ellipse class="cls-9" cx="50.16" cy="50.58" rx="2.25" ry="1.03" transform="translate(-0.31 0.31) rotate(-0.35)"/><path class="cls-4" d="M62.11,56.73a36.81,36.81,0,0,1-10.23,2.54A19.11,19.11,0,0,1,41.6,57.44a7.6,7.6,0,0,0,3.86,7.24A11.75,11.75,0,0,0,49,65.88a14.37,14.37,0,0,0,4.34.12,12.65,12.65,0,0,0,8.37-5,21.68,21.68,0,0,0,2.05-3.39C65,55.09,63.44,56.22,62.11,56.73Z"/><path class="cls-6" d="M64.42,55.69a21.4,21.4,0,0,1-2,2.48,20.79,20.79,0,0,1-3.61,3,14.21,14.21,0,0,0,7.15-4.86Z"/><path class="cls-6" d="M42.84,60.55a15.33,15.33,0,0,0,8.1,2.52,13.76,13.76,0,0,1-3.42.15,13.31,13.31,0,0,1-3.08-.62Z"/><path class="cls-2" d="M53.05,66.57l-.65,0a12.58,12.58,0,0,1-11.09-8.74.23.23,0,0,1,.3-.29,27.71,27.71,0,0,0,22.69-2,.22.22,0,0,1,.21,0l1.51.64a.24.24,0,0,1,.13.13.28.28,0,0,1,0,.18A18.23,18.23,0,0,1,60.28,64,12.32,12.32,0,0,1,53.05,66.57ZM41.91,58.11a12.08,12.08,0,0,0,10.52,8A11.59,11.59,0,0,0,60,63.64a17.58,17.58,0,0,0,5.62-7.18L64.43,56a28.37,28.37,0,0,1-12,3.52A28,28,0,0,1,41.91,58.11Z"/><path class="cls-2" d="M67.3,57.65a.2.2,0,0,1-.16-.07,7.22,7.22,0,0,0-5.46-2,.23.23,0,1,1,0-.46,7.47,7.47,0,0,1,5.84,2.19.24.24,0,0,1,0,.33A.27.27,0,0,1,67.3,57.65Z"/><path class="cls-6" d="M57.9,67.37a10.47,10.47,0,0,1-7.07.65,4,4,0,0,0,3.64,2.36C57.07,70.29,57.9,67.37,57.9,67.37Z"/><path class="cls-2" d="M52.45,59.47a.23.23,0,0,1-.23-.22L52,56.07a.24.24,0,0,1,.47,0l.26,3.19a.24.24,0,0,1-.22.25Z"/><circle class="cls-10" cx="71.09" cy="43.66" r="10.69"/><path class="cls-11" d="M72.41,33.13a11.12,11.12,0,0,0-1.72-.08A10.58,10.58,0,0,1,68.1,54a10.33,10.33,0,0,0,1.69.35,10.69,10.69,0,1,0,2.62-21.21Z"/><path class="cls-2" d="M65.05,52.81a.23.23,0,0,1-.14,0,11.22,11.22,0,0,1-1.6-1.32.25.25,0,0,1,0-.34.24.24,0,0,1,.33,0,11.13,11.13,0,0,0,1.54,1.28.23.23,0,0,1-.13.42Z"/><circle class="cls-2" cx="70.02" cy="42.91" r="5.38"/><path class="cls-2" d="M70,48.68a5.77,5.77,0,0,1-5.69-4.88h0a5.78,5.78,0,0,1,9.11-5.55,5.76,5.76,0,0,1-2.52,10.36A5.46,5.46,0,0,1,70,48.68Zm0-10.76a5.12,5.12,0,0,0-.78.06,5,5,0,0,0-4.17,5.7h0a5,5,0,0,0,5.7,4.16,4.9,4.9,0,0,0,3.26-2A5,5,0,0,0,75,42.14a5,5,0,0,0-2-3.26A5,5,0,0,0,70,37.92Z"/><path class="cls-12" d="M74.7,44.61a18.14,18.14,0,0,0-4.43-2.67,17.79,17.79,0,0,0-4.52-1.23,5.19,5.19,0,0,1,3.36-2.63,5,5,0,0,1,5.22,2.49A5.34,5.34,0,0,1,74.7,44.61Z"/><circle class="cls-4" cx="67.63" cy="41.34" r="1.65"/><path class="cls-1" d="M80.1,37.24a11.46,11.46,0,0,0-4.91-3.7,7.33,7.33,0,0,0-1.88-.64,8.92,8.92,0,0,0-1.37-.07A15.24,15.24,0,0,0,69,33a8.68,8.68,0,0,0-1.8.54,11,11,0,0,0-5.1,4.17,10.11,10.11,0,0,0-1.61,6.37,19.11,19.11,0,0,1,10.39-3.75,29.38,29.38,0,0,1,8.46.76,7.28,7.28,0,0,0,2,.53c.57-.09.37-.4.22-1A11,11,0,0,0,80.1,37.24Z"/><path class="cls-2" d="M60.35,44.22a.22.22,0,0,1-.19-.1.22.22,0,0,1,.06-.32,22.63,22.63,0,0,1,14.45-3.73,26.75,26.75,0,0,1,7.07,1.4.23.23,0,0,1,.13.3.24.24,0,0,1-.3.14,26.18,26.18,0,0,0-6.94-1.37,22.21,22.21,0,0,0-14.15,3.64A.2.2,0,0,1,60.35,44.22Z"/><path class="cls-2" d="M71.07,54.67A11,11,0,0,1,65,52.8a.24.24,0,0,1-.07-.33.23.23,0,0,1,.33-.06,10.62,10.62,0,1,0-1.54-1.27.24.24,0,0,1,0,.33.22.22,0,0,1-.33,0A11,11,0,1,1,81.9,41.54,11,11,0,0,1,71.07,54.67Z"/><path class="cls-2" d="M67.93,31.61A19.47,19.47,0,0,1,60.12,30a.23.23,0,0,1-.1-.31.22.22,0,0,1,.31-.11c.08,0,7.93,3.8,15.9-.54a.24.24,0,0,1,.32.1.24.24,0,0,1-.09.32A17.74,17.74,0,0,1,67.93,31.61Z"/><circle class="cls-10" cx="33.94" cy="42.29" r="10.69"/><path class="cls-11" d="M34.58,31.68a10.92,10.92,0,0,0-1.72.05A10.61,10.61,0,0,1,31.72,52.8a10.51,10.51,0,0,0,1.71.23,10.69,10.69,0,1,0,1.15-21.35Z"/><circle class="cls-2" cx="34.9" cy="41.72" r="5.38"/><path class="cls-2" d="M34.9,47.5a5.78,5.78,0,0,1-5.7-4.89A5.77,5.77,0,0,1,34,36a5.77,5.77,0,0,1,1.78,11.41A6.8,6.8,0,0,1,34.9,47.5Zm0-10.77a5.09,5.09,0,0,0-.77.06,5,5,0,0,0-3.26,2,4.92,4.92,0,0,0-.9,3.71,5,5,0,0,0,9,2.18,4.93,4.93,0,0,0,.9-3.71A5,5,0,0,0,34.9,36.73Z"/><path class="cls-12" d="M39.57,43.42a18.16,18.16,0,0,0-4.43-2.66,18.36,18.36,0,0,0-4.51-1.24A5.16,5.16,0,0,1,34,36.89a5,5,0,0,1,5.22,2.49A5.24,5.24,0,0,1,39.57,43.42Z"/><circle class="cls-4" cx="32.51" cy="40.16" r="1.65"/><path class="cls-1" d="M25.07,36A11.6,11.6,0,0,1,30,32.31a7.18,7.18,0,0,1,1.88-.63,7.93,7.93,0,0,1,1.37-.08,16,16,0,0,1,2.94.19,9,9,0,0,1,1.81.54,11.13,11.13,0,0,1,5.1,4.17,10.18,10.18,0,0,1,1.61,6.37A19.05,19.05,0,0,0,34.3,39.13a28.76,28.76,0,0,0-8.47.76,7.43,7.43,0,0,1-2,.52c-.56-.08-.36-.4-.21-1A11,11,0,0,1,25.07,36Z"/><path class="cls-2" d="M44.66,43a.2.2,0,0,1-.13,0,22.18,22.18,0,0,0-14.14-3.64,26.45,26.45,0,0,0-6.95,1.36.23.23,0,0,1-.17-.43,26.75,26.75,0,0,1,7.07-1.4A22.64,22.64,0,0,1,44.8,42.59a.24.24,0,0,1,.05.33A.21.21,0,0,1,44.66,43Z"/><path class="cls-2" d="M33.94,53.3a11,11,0,1,1,11-11A11,11,0,0,1,33.94,53.3Zm0-21.55A10.54,10.54,0,1,0,44.48,42.29,10.55,10.55,0,0,0,33.94,31.75Z"/><path class="cls-2" d="M26.85,28.65a.21.21,0,0,1-.18-.09.24.24,0,0,1,0-.33c.07-.05,7.17-5.52,14.73-2.25a.24.24,0,0,1-.19.43C34,23.26,27.07,28.55,27,28.6A.23.23,0,0,1,26.85,28.65Z"/><path class="cls-2" d="M42.91,87.78a.19.19,0,0,1-.1,0,.22.22,0,0,1-.12-.13,24.27,24.27,0,0,1-1.08-7.84,24.71,24.71,0,0,1,.85-6.34.23.23,0,0,1,.29-.15A34.19,34.19,0,0,1,50.68,77a.23.23,0,1,1-.26.39,33.16,33.16,0,0,0-7.58-3.53,27.52,27.52,0,0,0-.76,6,24,24,0,0,0,1,7.44l3.49-1.32a36.42,36.42,0,0,0,5.22-2.77.23.23,0,0,1,.25.39,35.43,35.43,0,0,1-5.3,2.81C44.5,87.2,43,87.76,43,87.76Z"/><path class="cls-2" d="M67.49,88l-.09,0-3.69-1.5a36.55,36.55,0,0,1-5.23-2.95.23.23,0,0,1-.06-.32.23.23,0,0,1,.32-.07A36.58,36.58,0,0,0,63.89,86l3.46,1.41A24.05,24.05,0,0,0,68.52,80a27.18,27.18,0,0,0-.62-6,33,33,0,0,0-7.66,3.33.24.24,0,0,1-.33-.07A.23.23,0,0,1,60,77a33.89,33.89,0,0,1,8-3.46.23.23,0,0,1,.28.16,26.39,26.39,0,0,1-.58,14.17.24.24,0,0,1-.13.13Z"/><path class="cls-13" d="M44,84.8a55.92,55.92,0,0,1-.36-7.43,25,25,0,0,1,.57-4.83A30.11,30.11,0,0,1,53,77.44"/><path class="cls-2" d="M44,85a.24.24,0,0,1-.23-.21,54.9,54.9,0,0,1-.37-7.47A24.78,24.78,0,0,1,44,72.48a.26.26,0,0,1,.11-.14.25.25,0,0,1,.19,0,30.82,30.82,0,0,1,8.9,4.94.23.23,0,0,1,0,.33.24.24,0,0,1-.33,0,30,30,0,0,0-8.49-4.77,28.53,28.53,0,0,0-.51,4.53,53.82,53.82,0,0,0,.37,7.39A.25.25,0,0,1,44,85Z"/><path class="cls-13" d="M51.9,83.35a36.9,36.9,0,0,1-5.27,2.79l-3.72,1.4a24,24,0,0,1-1.07-7.75,25.36,25.36,0,0,1,.84-6.28,33.82,33.82,0,0,1,7.87,3.64"/><path class="cls-14" d="M51.77,77.32a2.12,2.12,0,0,1-1.51.73c-2.25-.15-5.44-.74-5.29-.51.27.45,3.39.61,3.93,1.82.72,1.62-5.3,1.08-5.14,1.49s5.76-.37,5.61,1.79c-.11,1.56-6,4.49-6,4.49s5.09-1.23,7.55-3.28.17-5.5.17-5.5"/><path class="cls-2" d="M42.91,87.78a.19.19,0,0,1-.1,0,.22.22,0,0,1-.12-.13,24.27,24.27,0,0,1-1.08-7.84,24.71,24.71,0,0,1,.85-6.34.23.23,0,0,1,.29-.15A34.19,34.19,0,0,1,50.68,77a.23.23,0,1,1-.26.39,33.16,33.16,0,0,0-7.58-3.53,27.52,27.52,0,0,0-.76,6,24,24,0,0,0,1,7.44l3.49-1.32a36.42,36.42,0,0,0,5.22-2.77.23.23,0,0,1,.25.39,35.43,35.43,0,0,1-5.3,2.81C44.5,87.2,43,87.76,43,87.76Z"/><path class="cls-13" d="M66.46,85A55.55,55.55,0,0,0,67,77.56a25.92,25.92,0,0,0-.45-4.84,30.08,30.08,0,0,0-8.94,4.66"/><path class="cls-2" d="M66.46,85.21h0a.24.24,0,0,1-.19-.27,57.06,57.06,0,0,0,.54-7.38A27.23,27.23,0,0,0,66.38,73a30,30,0,0,0-8.61,4.54.23.23,0,0,1-.33,0,.24.24,0,0,1,0-.33,30.92,30.92,0,0,1,9-4.71.25.25,0,0,1,.19,0,.33.33,0,0,1,.11.15,26.13,26.13,0,0,1,.45,4.89A55.48,55.48,0,0,1,66.69,85,.23.23,0,0,1,66.46,85.21Z"/><path class="cls-13" d="M58.61,83.32a36.48,36.48,0,0,0,5.19,2.92l3.69,1.5A23.79,23.79,0,0,0,68.75,80a25.22,25.22,0,0,0-.68-6.3,33.83,33.83,0,0,0-8,3.43"/><path class="cls-14" d="M58.89,77.29a2.15,2.15,0,0,0,1.49.78c2.25-.09,5.45-.6,5.31-.38-.29.44-3.42.52-4,1.72C61,81,67,80.63,66.81,81s-5.75-.51-5.65,1.64c.07,1.56,5.93,4.65,5.93,4.65S62,86,59.62,83.85s0-5.51,0-5.51"/><path class="cls-2" d="M67.49,88l-.09,0-3.69-1.5a36.55,36.55,0,0,1-5.23-2.95.23.23,0,0,1-.06-.32.23.23,0,0,1,.32-.07A36.58,36.58,0,0,0,63.89,86l3.46,1.41A24.05,24.05,0,0,0,68.52,80a27.18,27.18,0,0,0-.62-6,33,33,0,0,0-7.66,3.33.24.24,0,0,1-.33-.07A.23.23,0,0,1,60,77a33.89,33.89,0,0,1,8-3.46.23.23,0,0,1,.28.16,26.39,26.39,0,0,1-.58,14.17.24.24,0,0,1-.13.13Z"/><ellipse class="cls-13" cx="55.53" cy="81.11" rx="5.18" ry="5.3"/><path class="cls-2" d="M55.53,86.64h-.07a5.56,5.56,0,0,1-3.71-9.49,5.31,5.31,0,0,1,3.84-1.58,5.5,5.5,0,0,1,5.35,5.61h0a5.56,5.56,0,0,1-1.64,3.89A5.3,5.3,0,0,1,55.53,86.64Zm0-10.6a4.84,4.84,0,0,0-3.44,1.44,5.09,5.09,0,0,0,3.38,8.69A4.83,4.83,0,0,0,59,84.74a5.11,5.11,0,0,0,1.5-3.57A5,5,0,0,0,55.59,76Z"/><path class="cls-4" d="M59.33,81.19a5.24,5.24,0,0,0,0-.7l-.83.61v.08a2.94,2.94,0,1,1-2.9-3.05,2.89,2.89,0,0,1,1.65.55l.74-.55a3.65,3.65,0,0,0-2.38-.9,3.91,3.91,0,1,0,3.77,4Z"/><path class="cls-4" d="M58.56,78.79a3.77,3.77,0,0,1,.45.78L55.5,82.15l-1.45-1,0-1.12,1.44,1Z"/></g></g></svg>